$MeshFormat
4.1 0 8
$EndMeshFormat
$PhysicalNames
8
0 1 "ENDOPT"
0 2 "EPIPT"
1 3 "EPIRING"
1 4 "ENDORING"
2 5 "BASE"
2 6 "ENDO"
2 7 "EPI"
3 8 "MYOCARDIUM"
$EndPhysicalNames
$Entities
12 21 16 4
1 0 0 0 0 
2 -17 -8.572527594031472e-16 0 1 1 
3 4.999999999999999 -6.690384568523732 0 0 
4 -20 -1.224646799147353e-15 0 1 2 
5 5 -9.682458365518542 0 0 
13 5 -5.928795822604898e-16 -9.682458365518542 0 
17 4.999999999999999 -4.096679023453717e-16 -6.690384568523732 0 
40 5 0 0 0 
48 5 9.682458365518542 -1.18575916452098e-15 0 
52 4.999999999999999 6.690384568523732 -8.193358046907434e-16 0 
60 5 1.778638746781469e-15 9.682458365518542 0 
64 4.999999999999999 1.229003707036115e-15 6.690384568523732 0 
1 -20 -1.224646799147353e-15 0 -17 -8.572527594031472e-16 0 0 2 2 -4 
2 4.999999999999999 -9.682458365518542 0 5 -6.690384568523732 0 1 -4 2 3 -5 
3 -17 -6.971145150371695 0 5.000000000000007 -4.440892098500626e-15 0 0 2 2 -3 
4 -20 -9.987466720170627 0 4.999999999999993 -8.881784197001252e-16 0 1 3 2 4 -5 
7 -20 -1.535568542539072e-15 -9.987466720170627 4.999999999999993 -5.928795822604902e-16 0 1 4 2 4 -13 
8 4.999999999999999 -5.928795822604898e-16 -9.682458365518542 5 -4.096679023453717e-16 -6.690384568523732 0 2 13 -17 
9 -17 -1.100222605038541e-15 -6.971145150371695 5.000000000000007 -4.096679023453714e-16 -3.552713678800501e-15 1 3 2 17 -2 
12 5 -9.682458365518542 -9.682458365518542 5 -8.881784197001252e-16 0 0 2 5 -13 
16 4.999999999999999 -6.690384568523732 -6.690384568523732 4.999999999999999 -4.440892098500626e-16 0 0 2 3 -17 
24 -20 5.329070518200751e-15 -1.223111915044767e-15 5.00000000000002 9.987466720170627 -7.888609052210118e-31 1 4 2 4 -48 
25 4.999999999999999 6.690384568523732 -1.18575916452098e-15 5 9.682458365518542 -8.193358046907434e-16 0 2 48 -52 
26 -17 -8.881784197001252e-16 -8.537190594794293e-16 4.999999999999989 6.971145150371695 0 1 3 2 52 -2 
29 5 -8.881784197001252e-16 -9.682458365518542 5 9.682458365518542 -8.881784197001252e-16 0 2 13 -48 
33 4.999999999999999 -4.440892098500626e-16 -6.690384568523732 4.999999999999999 6.690384568523732 -8.881784197001252e-16 0 2 17 -52 
41 -20 -1.224646799147352e-15 6.217248937900877e-15 4.999999999999986 1.778638746781468e-15 9.987466720170625 1 4 2 4 -60 
42 4.999999999999999 1.229003707036115e-15 6.690384568523732 5 1.778638746781469e-15 9.682458365518542 0 2 60 -64 
43 -17 -8.572527594031473e-16 0 4.999999999999989 1.229003707036115e-15 6.971145150371695 1 3 2 64 -2 
46 5 1.77635683940025e-15 -8.881784197001252e-16 5 9.682458365518542 9.682458365518542 0 2 48 -60 
50 4.999999999999999 2.664535259100376e-15 -2.664535259100376e-15 4.999999999999999 6.690384568523732 6.690384568523732 0 2 52 -64 
63 5 -9.682458365518542 4.440892098500626e-15 5 4.440892098500626e-15 9.682458365518542 0 2 60 -5 
67 4.999999999999999 -6.690384568523732 3.108624468950438e-15 4.999999999999999 2.664535259100376e-15 6.690384568523732 0 2 64 -3 
1 -20 -9.987466720170627 0 5.000000000000007 -8.881784197001252e-16 0 0 4 1 4 -2 -3 
13 -20 -9.987466720170627 -9.987466720170627 5 -8.881784197001252e-16 0 1 7 3 4 12 -7 
17 4.999999999999999 -9.682458365518542 -9.682458365518542 5 0 0 1 5 4 -2 16 -8 -12 
20 -17 -6.971145150371695 -6.971145150371695 5.000000000000007 -4.440892098500626e-16 0 1 6 3 -9 -16 -3 
21 -20 -1.535568542539072e-15 -9.987466720170627 5.000000000000007 -4.096679023453714e-16 0 0 4 1 7 8 9 
30 -20 -1.77635683940025e-15 -9.987466720170627 5.00000000000002 9.987466720170627 0 1 7 3 7 29 -24 
34 4.999999999999999 -8.881784197001252e-16 -9.682458365518542 5 9.682458365518542 -8.881784197001252e-16 1 5 4 8 33 -25 -29 
37 -17 -8.881784197001252e-16 -6.971145150371695 5.000000000000007 6.971145150371695 0 1 6 3 -26 -33 9 
38 -20 -8.881784197001252e-16 -1.223111915044767e-15 5.00000000000002 9.987466720170627 0 0 4 1 24 25 26 
47 -20 -8.881784197001252e-16 -8.881784197001252e-16 5.00000000000002 9.987466720170627 9.987466720170625 1 7 3 24 46 -41 
51 4.999999999999999 8.881784197001252e-16 -2.664535259100376e-15 5 9.682458365518542 9.682458365518542 1 5 4 25 50 -42 -46 
54 -17 -8.881784197001252e-16 -2.664535259100376e-15 5 6.971145150371695 6.971145150371695 1 6 3 -43 -50 26 
55 -20 -1.224646799147353e-15 0 5 1.778638746781469e-15 9.987466720170625 0 4 1 41 42 43 
64 -20 -9.987466720170627 0 5 4.440892098500626e-15 9.987466720170625 1 7 3 41 63 -4 
68 4.999999999999999 -9.682458365518542 0 5 4.440892098500626e-15 9.682458365518542 1 5 4 42 67 2 -63 
71 -17 -6.971145150371695 0 5.000000000000007 2.664535259100376e-15 6.971145150371695 1 6 3 3 -67 43 
1 -20 -9.987466720170627 -9.987466720170627 5.000000000000007 0 0 1 8 5 -1 21 13 -17 -20 
2 -20 -1.77635683940025e-15 -9.987466720170627 5.00000000000002 9.987466720170627 0 1 8 5 -21 38 30 34 37 
3 -20 -8.881784197001252e-16 -2.664535259100376e-15 5.00000000000002 9.987466720170627 9.987466720170625 1 8 5 -38 55 47 51 54 
4 -20 -9.987466720170627 0 5.000000000000007 4.440892098500626e-15 9.987466720170625 1 8 5 -55 1 64 68 71 
$EndEntities
$Nodes
48 487 1 487
0 2 0 1
1
-17 -8.572527594031472e-16 -0
0 3 0 1
2
4.999999999999999 -6.690384568523732 -0
0 4 0 1
3
-20 -1.224646799147353e-15 -0
0 5 0 1
4
5 -9.682458365518542 -0
0 13 0 1
5
5 -5.928795822604898e-16 -9.682458365518542
0 17 0 1
6
4.999999999999999 -4.096679023453717e-16 -6.690384568523732
0 48 0 1
7
5 9.682458365518542 -1.18575916452098e-15
0 52 0 1
8
4.999999999999999 6.690384568523732 -8.193358046907434e-16
0 60 0 1
9
5 1.778638746781469e-15 9.682458365518542
0 64 0 1
10
4.999999999999999 1.229003707036115e-15 6.690384568523732
1 1 0 1
11
-18.5 -1.04094977927525e-15 0
1 2 0 0
1 3 0 8
12
13
14
15
16
17
18
19
-16.4224114630471 -1.809161312488204 0
-14.91793299284967 -3.356710206608112 0
-12.87070614608514 -4.573090102508156 0
-10.47019500381422 -5.514804175601846 0
-7.798845477369256 -6.219937374317771 0
-4.897348904476814 -6.703245795334921 0
-1.788144929859692 -6.961168703278588 0
1.51484234495364 -6.972153554904856 0
1 4 0 9
20
21
22
23
24
25
26
27
28
-19.60032948388186 -1.989163399728109 0
-18.4173082998777 -3.898806066838156 0
-16.61291151708066 -5.568015151866255 0
-14.35286129091992 -6.964111084043903 0
-11.74275013727322 -8.09487213014464 0
-8.845230383268124 -8.968861403028125 0
-5.698912454389999 -9.585436829341667 0
-2.329511981514203 -9.931935535533617 0
1.243314992611703 -9.980658392976224 0
1 7 0 9
29
30
31
32
33
34
35
36
37
-19.60032948388186 -1.384873000581903e-15 -1.989163399728108
-18.4173082998777 -1.489749102082064e-15 -3.898806066838155
-16.61291151708066 -1.534252042216189e-15 -5.568015151866254
-14.35286129091992 -1.525494993742858e-15 -6.964111084043902
-11.74275013727322 -1.470665865662896e-15 -8.09487213014464
-8.845230383268124 -1.374396113729152e-15 -8.968861403028125
-5.69891245439 -1.238990326470708e-15 -9.585436829341667
-2.329511981514203 -1.064847351605042e-15 -9.931935535533617
1.243314992611702 -8.505988389467108e-16 -9.980658392976224
1 9 0 8
38
39
40
41
42
43
44
45
1.514841948028662 -6.1328478173583e-16 -6.972153569526867
-1.788144958952431 -7.787566862257477e-16 -6.961168702011511
-4.89734895699082 -9.1003009422057e-16 -6.703245788829891
-7.798845549775915 -1.008534778488414e-15 -6.219937358924851
-10.47019508558083 -1.073491404784967e-15 -5.514804149281056
-12.87070620007804 -1.101388398842873e-15 -4.57309007674331
-14.91793302180588 -1.08430099609516e-15 -3.356710184789119
-16.42241147180644 -1.007085966412468e-15 -1.809161299006986
1 12 0 3
46
47
48
5 -8.945425104394127 -3.705316410466902
5 -6.846531953368274 -6.846531984260879
5 -3.705316389215547 -8.945425113196727
1 16 0 2
49
50
4.999999999999999 -5.794042992279989 -3.345192293180115
4.999999999999999 -3.345192275521968 -5.794043002474925
1 24 0 9
51
52
53
54
55
56
57
58
59
-19.60032948420918 1.989163398921771 -2.436022589470618e-16
-18.41730830068933 3.898806065879644 -4.774660369075792e-16
-16.61291151909874 5.568015150360946 -6.818851931493502e-16
-14.35286129683732 6.964111080994997 -8.528576344247139e-16
-11.74275013957431 8.094872129310124 -9.913359242666763e-16
-8.845230386249204 8.968861402293125 -1.098368740831452e-15
-5.69891245857556 9.585436828719548 -1.173877453072055e-15
-2.329511987419884 9.931935535187327 -1.216311306250501e-15
1.243315001940141 9.980658392685708 -1.222278135398572e-15
1 26 0 8
60
61
62
63
64
65
66
67
1.514841945399464 6.972153569623721 -8.538425552203485e-16
-1.788144961008997 6.96116870192194 -8.524972969133441e-16
-4.897348958515709 6.703245788641 -8.209108498957178e-16
-7.798845550885835 6.219937358688894 -7.617226377215398e-16
-10.47019508632905 5.514804149040203 -6.75368724904663e-16
-12.87070619999025 4.573090076785206 -5.600420124747529e-16
-14.91793302245743 3.356710184298169 -4.110784382866076e-16
-16.42241147232841 1.80916129820364 -2.21558359298636e-16
1 29 0 3
68
69
70
5 3.705316410466901 -8.945425104394127
5 6.846531984260879 -6.846531953368274
5 8.945425113196727 -3.705316389215547
1 33 0 2
71
72
4.999999999999999 3.345192293180114 -5.794042992279989
4.999999999999999 5.794043002474926 -3.345192275521967
1 41 0 9
73
74
75
76
77
78
79
80
81
-19.60032948404458 -8.976684825612094e-16 1.989163399327253
-18.41730830081396 -5.348170282576193e-16 3.898806065732457
-16.61291151947406 -1.70481655966845e-16 5.568015150080994
-14.35286129721747 1.802202749742661e-16 6.964111080799126
-11.74275013899586 5.120059828743642e-16 8.094872129519905
-8.845230386412826 8.22341367803305e-16 8.968861402252783
-5.698912459089608 1.108764579431779e-15 9.58543682864314
-2.329511987843413 1.367775260536785e-15 9.931935535162491
1.243315097964951 1.593957437873646e-15 9.980658389695195
1 43 0 8
82
83
84
85
86
87
88
89
1.514841945399465 1.094400328562705e-15 6.972153569623721
-1.788144961008997 9.262379075060954e-16 6.96116870192194
-4.897348958515711 7.317916055126553e-16 6.703245788641
-7.798845550885835 5.14910496922036e-16 6.219937358688894
-10.47019508632905 2.772460450104535e-16 5.514804149040204
-12.87070619999025 1.869562610691584e-17 4.573090076785207
-14.91793302245743 -2.621441195062363e-16 3.35671018429817
-16.42241147232841 -5.639692477620516e-16 1.809161298203641
1 46 0 3
90
91
92
5 8.945425104394127 3.705316410466901
5 6.846531953368275 6.846531984260878
5 3.705316389215548 8.945425113196727
1 50 0 2
93
94
4.999999999999999 5.794042991416711 3.345192294675355
4.999999999999999 3.345192273373994 5.794043003715059
1 63 0 3
95
96
97
5 -3.705316412315269 8.945425103628507
5 -6.846531986052998 6.846531951576154
5 -8.945425112515927 3.705316390859143
1 67 0 2
98
99
4.999999999999999 -3.345192294675355 5.794042991416712
4.999999999999999 -5.794043003715058 3.345192273373994
2 1 0 6
100
101
102
103
104
105
-17.9627152333325 -1.641326115036327 0
-16.67773642479007 -3.562458052672305 0
-14.60066525667753 -5.128203913432896 0
3.189539334391336 -8.331413720480839 0
-0.339874893452138 -8.461479046673322 0
-12.32691847172464 -6.226086115306209 0
2 13 0 38
106
107
108
109
110
111
112
113
114
115
116
117
118
119
120
121
122
123
124
125
126
127
128
129
130
131
132
133
134
135
136
137
138
139
140
141
142
143
-7.018501914546404 -9.007254282518034 -2.560181245329649
-12.92868371492056 -7.254524884667667 -2.36308126132483
-3.96712710472106 -2.764221041708815 -9.403433291427184
-10.20097606306357 -2.521724149577225 -8.223498595709739
-17.14894073132502 -4.698630842451209 -2.097933782258549
-15.27554797660624 -2.171866754230507 -6.078437571076012
-0.6326558927773491 -9.593127700726221 -2.805679516247847
1.238372926422415 -5.473549735358604 -8.346068620514195
-19.32437941229977 -1.822373463696616 -1.822373463696616
-18.30750387553211 -2.057880393118429 -3.460340120488584
1.433640888021878 -8.267624803868067 -5.579654877634769
-1.439095772998695 -7.091700903905597 -7.013560374629913
-7.167797927825236 -2.792984457826373 -8.908137068703331
-8.458774073522861 -5.057116547154425 -7.519166012382707
-11.45315149840866 -4.906070118403123 -6.567861614097606
-9.84357034487023 -6.813874079151968 -5.417301057709342
-6.95107246931326 -7.102473766152402 -6.121724780052248
-3.934433793329865 -9.433210418439112 -2.672938248992626
-0.7250968995462856 -2.816908243588947 -9.588200382176403
-10.11432148349015 -8.194964103727267 -2.695865087643285
-12.70299251490282 -2.371089243430714 -7.350947632194636
-15.21796637403749 -6.050411795537713 -2.344331880106609
-13.69981519072204 -5.766184991640159 -4.453074957509609
-15.69607369044816 -4.32909969062568 -4.434773223585383
-5.55707650861117 -5.168275620323024 -8.097447269463082
-4.169276831096006 -7.238084931634281 -6.57756863885663
-13.8758787988989 -3.98510846235785 -5.99865880283342
-2.372141230788627 -8.62677544292896 -4.916500986735993
2.274671333771138 -2.690659718666801 -9.563828619291222
-2.785313091578453 -5.078386398963053 -8.501205757320399
2.3301287928489 -9.572645282799748 -2.647090335042585
-11.72522767036479 -6.837399293446003 -4.345081117943839
-5.525988935333561 -8.481992722558898 -4.519033195950288
-17.06983518996324 -1.629620829242582 -4.949698738284172
-18.44730496981681 -3.383620993892369 -1.864227402259128
-8.077796414615625 -8.001128329884262 -4.435002448672289
-17.37264611593956 -3.477629622742416 -3.529006083815527
-18.97206405542811 -0.9212922048778927 -3.027609129728338
2 17 0 1
144
4.999999999999999 -1.852658189853335 -7.817904848998629
2 20 0 22
145
146
147
148
149
150
151
152
153
154
155
156
157
158
159
160
161
162
163
164
165
166
-6.176039674719927 -2.511615364652273 -6.018683991515439
-0.1824259293777077 -2.680726862123219 -6.465915325244495
-11.53124221428208 -2.113622437175088 -4.689092715372038
-3.288852467712904 -6.360690588845135 -2.589916449445046
-9.031185511957306 -5.475894130782899 -2.277208686063496
-13.52265802689096 -3.739187150414153 -2.003533933846631
-16.01151958156248 -1.663224654309213 -1.663224655211142
2.11224835791949 -4.91139165444149 -4.911391669409634
-13.5248990691173 -1.998279849878903 -3.74062416925491
-3.226716668359955 -2.641185350588758 -6.344984974755328
-4.804748520417813 -4.697870215817426 -4.797483355519112
-6.243766172693625 -5.993772093716374 -2.542606477175692
-0.2359776109002794 -6.495167051234352 -2.608325804378433
-1.489210669750623 -4.932728308200976 -4.92870893940339
-8.907109733030715 -2.359574731636628 -5.475479174109935
-11.46802717660901 -4.665864877566591 -2.220631483841601
-7.592968496949687 -4.495650285219309 -4.360507248464863
-10.1612714002542 -3.876261591256251 -4.058114976088832
2.512548958288774 -6.452100221716933 -2.509989852014848
-12.0247051318973 -3.51286040252443 -3.484817523160944
2.57061034523223 -2.455444536755278 -6.469188373943301
-14.80990859163433 -2.430046666368923 -2.430402961486271
2 21 0 6
167
168
169
170
171
172
-17.96271523866628 -1.190526414319169e-15 -1.641326110963037
-16.67773644223544 -1.285253095315121e-15 -3.562458025776914
-14.60066530875369 -1.236342636905697e-15 -5.128203907336816
3.189539235160091 5.220034289435771e-16 -8.331413724136342
-0.3398749999565675 7.270765413861871e-17 -8.461479050012054
-12.32691854431212 -1.101953223719366e-15 -6.226086115038146
2 30 0 38
173
174
175
176
177
178
179
180
181
182
183
184
185
186
187
188
189
190
191
192
193
194
195
196
197
198
199
200
201
202
203
204
205
206
207
208
209
210
-7.018501928502218 2.560181249709532 -9.007254278554502
-12.92868371492056 2.363081261324829 -7.254524884667665
-3.967127111058212 9.403433289028195 -2.76422104759607
-10.20097606553861 8.223498594481953 -2.521724151078082
-17.14894073202322 2.097933781952813 -4.698630841950652
-15.27554798022704 6.078437569505007 -2.171866752260699
-0.6326558920978604 2.805679514156846 -9.593127701348974
1.238372927145472 8.346068619842917 -5.473549736341277
-19.3243794073244 1.822373470280347 -1.82237347030255
-18.30750387741298 3.460340118530947 -2.057880392227002
1.433640891180965 5.579654877288116 -8.267624803965067
-1.439095761555465 7.013560370910734 -7.091700908164327
-7.167797945543724 8.908137062949228 -2.79298446481091
-8.45877409058053 7.519166006248693 -5.057116549141909
-11.45315150064713 6.567861613513279 -4.906070117878958
-9.843570368020769 5.417301052673363 -6.813874074794744
-6.951072493301934 6.121724768649571 -7.102473770111206
-3.934433794058671 2.672938250631028 -9.433210417898872
-0.7250969036012174 9.588200381570045 -2.816908245391924
-10.11432148671834 2.695865086293899 -8.194964103175103
-12.70299251285911 7.350947634150759 -2.371089240103529
-15.21796637535741 2.344331879590273 -6.050411794907811
-13.69981519102878 4.453074956638715 -5.766184992130534
-15.69607369176682 4.434773223445091 -4.329099689574126
-5.55707652125964 8.097447260586502 -5.168275630830494
-4.169276830044836 6.577568602559889 -7.238084964770114
-13.8758788036199 5.998658800820365 -3.98510846127849
-2.372141226879782 4.916500977249717 -8.626775448604009
2.274671330660667 9.563828617860466 -2.690659724409757
-2.785313096123522 8.501205757027103 -5.078386398830828
2.330128793984285 2.647090335939337 -9.572645282482679
-11.72522767524738 4.345081113115441 -6.83739929442114
-5.525988938174052 4.519033197558612 -8.481992721239372
-17.06983519056844 4.949698740041313 -1.62962082232073
-18.44730496724283 1.86422739967562 -3.38362099882407
-8.077796444967905 4.435002436835334 -8.001128328784674
-17.37264611673223 3.529006083933506 -3.477629621632734
-18.97206405044796 3.027609136810309 -0.9212922072435898
2 34 0 2
211
212
4.999999999999999 1.672151901671483 -7.861761768271479
4.999999999999999 7.861761789358348 -1.672151895094618
2 37 0 22
213
214
215
216
217
218
219
220
221
222
223
224
225
226
227
228
229
230
231
232
233
234
-6.230215641925169 2.456953697897165 -6.031765002417121
-0.1349156428181783 6.444712262318003 -2.731775551645392
-11.53124221459293 4.68909271524024 -2.113622437179939
-6.169154229346718 6.020039729122539 -2.51123525781736
-13.52265806230862 2.003533919307053 -3.739187136487599
-0.1349156405040677 2.731775552123375 -6.44471226212361
-16.01151960114217 1.663224638807827 -1.663224638754083
-9.031185588359765 2.277208680089162 -5.475894111902762
2.112248464393811 4.911391665527652 -4.911391650559508
-13.52489907002616 3.740624169348215 -1.998279848661272
-3.249638007174275 6.326901091393576 -2.679523800740246
-4.80474874326237 4.797500899713478 -4.697852260907841
-3.249638001770787 2.679523799200046 -6.326901092516431
-8.898014692764473 5.47625202905515 -2.363595880293859
-11.46802723636383 2.220631472592612 -4.665864858018709
-7.475641022066901 4.469002066572989 -4.4218405361024
-1.674106569669163 4.934476145001215 -4.916885019722216
-10.16127152364724 4.058114924850378 -3.876261590055198
-12.02470518944526 3.484817490330529 -3.512860401693123
2.526216903532806 6.473436287814002 -2.452058748766356
2.526216917482026 2.45205875110115 -6.473436286006649
-14.80990862163516 2.430402952959912 -2.430046643895995
2 38 0 6
235
236
237
238
239
240
-17.96271523905659 1.641326110720893 -2.010044767851317e-16
-16.67773644296761 3.562458024989036 -4.362752817399625e-16
-14.600665308459 5.128203905293116 -6.280238497992171e-16
3.189539236834901 8.331413724087925 -1.020303914957661e-15
-0.339875000272319 8.461479049854674 -1.036232323445691e-15
-12.32691854487162 6.226086114265888 -7.624756431051502e-16
2 47 0 38
241
242
243
244
245
246
247
248
249
250
251
252
253
254
255
256
257
258
259
260
261
262
263
264
265
266
267
268
269
270
271
272
273
274
275
276
277
278
-7.018501906681043 9.007254288061411 2.560181231217423
-12.92868371900792 7.254524882832949 2.363081261366697
-3.96712706418203 2.764221046436477 9.403433294313105
-10.20097606531914 2.521724151184316 8.223498594517437
-17.14894073067091 4.698630843475687 2.097933781300769
-15.27554798495954 2.171866752427085 6.078437566472278
-0.632655903375027 9.593127703836846 2.805679505014639
1.238372891595461 5.473549731866711 8.346068624096153
-19.32437942196611 1.82237345087834 1.822373450889505
-18.30750388911793 2.057880385006511 3.460340107343261
1.433640880124359 8.267624803144676 5.579654879213949
-1.439095799841331 7.091700890600719 7.013560386706081
-7.167797913083719 2.792984445693046 8.908137075472899
-8.45877401482066 5.057116552443376 7.519166025334985
-11.45315148536862 4.906070126105456 6.567861614028967
-9.843570310229984 6.813874086631801 5.417301064037084
-6.951072435179307 7.102473758567551 6.121724798541822
-3.934433797105412 9.433210424897254 2.672938224811497
-0.7250969002923832 2.816908245065817 9.588200381728409
-10.11432145871786 8.194964116063788 2.6958650733775
-12.70299250756312 2.371089243801197 7.350947635246019
-15.21796637496549 6.050411798745951 2.344331870320559
-13.69981519574401 5.766184992758093 4.453074952199513
-15.69607369578835 4.329099700484124 4.434773209236692
-5.557076467261105 5.168275611620437 8.097447282111974
-4.169276850651332 7.238084894698698 6.577568676402416
-13.87587879797627 3.98510848671441 5.998658787186093
-2.372141259914314 8.626775429877878 4.916501006122991
2.274671313178465 2.690659737337645 9.563828615262867
-2.785313101742032 5.078386394723441 8.501205759020534
2.330128777065684 9.572645285948843 2.647090327127875
-11.72522763863244 6.837399295183276 4.345081136617551
-5.5259889202975 8.481992725804485 4.519033194455102
-17.06983521388088 1.62962081775831 4.949698721444239
-18.44730497643509 3.383620977700411 1.864227415275273
-8.077796377176732 8.001128329617936 4.435002466200316
-17.37264612463181 3.477629616631863 3.529006079139519
-18.9720640677972 0.9212922099449777 3.027609108809174
2 51 0 2
279
280
4.999999999999999 7.86176175661819 1.672151901433698
4.999999999999999 1.852658189853336 7.817904848998629
2 54 0 22
281
282
283
284
285
286
287
288
289
290
291
292
293
294
295
296
297
298
299
300
301
302
-6.176039688165329 2.511615375156295 6.018683984792808
-0.1824258851147299 2.680726873215688 6.465915320857365
-11.53124221459293 2.113622437179939 4.689092715240242
-3.288852504591447 6.360690579915079 2.589916463436582
-9.031185589287908 5.475894111843205 2.277208679608273
-13.52265806824604 3.739187132724905 2.003533919534799
-16.01151960192657 1.6632246381408 1.663224638140801
2.112248411148969 4.911391650956669 4.911391669013029
-13.52489907016506 1.998279846933714 3.740624170185944
-3.22671662513027 2.641185365143769 6.344984972424049
-4.804748545814363 4.69787022087145 4.797483346257518
-6.243766172144634 5.993772101386522 2.542606459323171
-0.2359776323621357 6.49516704427772 2.6083258213724
-1.489210659134152 4.932728310201836 4.928708937944776
-8.907109789802075 2.359574749262394 5.475479150856167
-11.46802725664732 4.665864841945985 2.220631488603288
-7.592968519352921 4.49565029663134 4.360507230084852
-10.16127145267349 3.87626159813471 4.058114947264357
2.512548995003687 6.452100258670821 2.509989750790987
-12.02470518350937 3.512860402786369 3.48481749270128
2.570610363826255 2.455444548120294 6.469188368376865
-14.80990861539758 2.43004664686533 2.430402956435503
2 55 0 6
303
304
305
306
307
308
-17.96271523903836 -7.885174607636144e-16 1.641326110712834
-16.67773644300917 -4.127025318219715e-16 3.562458025029431
-14.6006653084367 1.970506298703599e-17 5.128203905181475
3.189539260841103 2.562611261925256e-15 8.331413723340297
-0.3398749763719984 2.14517230385321e-15 8.461479049100836
-12.32691854491852 4.229980625343505e-16 6.226086114409614
2 64 0 38
309
310
311
312
313
314
315
316
317
318
319
320
321
322
323
324
325
326
327
328
329
330
331
332
333
334
335
336
337
338
339
340
341
342
343
344
345
346
-7.01850195189692 -2.560181230336607 9.007254279503654
-12.92868371886886 -2.363081261825505 7.25452488274545
-3.967127091838864 -9.403433282087239 2.764221078103834
-10.20097606306357 -8.223498595709737 2.521724149577224
-17.14894072296802 -2.097933781093573 4.698630850596651
-15.27554797968307 -6.078437569216342 2.171866754025073
-0.6326558277117407 -2.805679510116748 9.593127703592119
1.238372911615612 -8.346068618719567 5.473549738932548
-19.32437942101103 -1.822373452155399 1.822373452144361
-18.30750389390982 -3.460340101765763 2.057880383727586
1.43364089724211 -5.579654879718545 8.267624802062061
-1.439095780262439 -7.013560326786452 7.091700950853386
-7.167798041938422 -8.908137024942139 2.792984524187506
-8.458774201894759 -7.519165961061111 5.05711656978162
-11.45315156416306 -6.567861589375859 4.906070113122968
-9.84357054613179 -5.417301018300006 6.813874037796512
-6.951072672551391 -6.121724675903397 7.102473806193354
-3.934433793748999 -2.672938218761872 9.433210426961413
-0.7250969026991128 -9.588200381126759 2.816908246958833
-10.11432151691635 -2.695865060544553 8.194964102328075
-12.70299252108323 -7.350947629721285 2.371089242820871
-15.21796636010045 -2.344331874804273 6.050411806355778
-13.69981519464354 -4.453074955376922 5.766184990957912
-15.69607368570438 -4.434773218442295 4.329099700194208
-5.55707658800264 -8.097447211368475 5.168275690002331
-4.169276923664153 -6.577568413561624 7.23808512303957
-13.8758787896545 -5.998658783978859 3.98510849878611
-2.372141257175068 -4.916500883164099 8.626775500141903
2.274671317283162 -9.563828623010684 2.690659708930847
-2.785313106400215 -8.50120575670922 5.07838639795386
2.330128867035257 -2.6470903744463 9.572645267389049
-11.72522775182748 -4.345081078083307 6.83739928385245
-5.525988917315368 -4.519033223104176 8.481992711026551
-17.06983520364999 -4.949698729936041 1.629620818757348
-18.44730497289236 -1.864227404478582 3.383620988477607
-8.077796606892251 -4.435002357367903 8.001128331964255
-17.37264611427718 -3.529006076426595 3.477629632316617
-18.97206405456643 -3.027609127284309 0.9212922173457315
2 68 0 2
347
348
4.999999999999999 -1.672151902074841 7.861761754863361
4.999999999999999 -7.817904863675052 1.852658181535957
2 71 0 22
349
350
351
352
353
354
355
356
357
358
359
360
361
362
363
364
365
366
367
368
369
370
-6.176039688177582 -2.511615376079574 6.018683984405389
-0.134915642818177 -2.731775551645387 6.444712262318005
-11.53124221459288 -2.113622437180018 4.689092715240226
-3.270052130247039 -6.35754795752375 2.601642388433469
-9.031185511988914 -5.475894130785034 2.277208686037108
-13.52265802006673 -3.739187154246945 2.003533934502896
-16.01151957242197 -1.663224661742021 1.663224662697698
2.112248382788238 -4.911391670047043 4.911391651990683
-13.52489906481966 -1.99827985103153 3.740624171273786
-3.249638042470014 -2.679523819978642 6.326901080172147
-4.804748550790872 -4.697870218932001 4.797483347311651
-6.243766101483232 -5.99377212329081 2.542606437107814
-0.1741079547585326 -6.486450703242439 2.630744685766241
-1.554729384398659 -4.952304296535169 4.905593570700363
-8.907109763099765 -2.359574754647658 5.475479155900282
-11.46802717285801 -4.665864880218897 2.220631481553138
-7.59296842612306 -4.495650326761535 4.360507226545882
-10.16127144354316 -3.876261614103149 4.058114935887722
-12.0247051400213 -3.512860420112731 3.484817500678165
2.526216925356884 -2.452058760317314 6.473436281994631
2.574117919214987 -6.470120633228181 2.452363240208855
-14.8099086049809 -2.430046657491596 2.430402956573014
3 1 0 27
371
372
373
374
375
376
377
378
379
380
381
382
383
384
385
386
387
388
389
390
391
392
393
394
395
396
397
-13.07932246714331 -1.362843368498392 -5.951122366988027
-13.41986388258586 -5.652605570045909 -1.414633167934063
-17.59476517135128 -1.117620142760679 -1.339624259581512
-10.84882831655124 -6.544051956892764 -1.48062050257785
-17.13720359413828 -3.490666332619839 -0.8516051341697719
-16.34259881738871 -1.09838701474223 -3.578180534184888
0.8073129767252186 -1.719526903662419 -8.035745773789232
3.45927364081285 -4.159344807909316 -7.205652511132629
0.3685664215235813 -8.263751986883291 -1.691518264716623
3.477597351799456 -6.641723141395144 -4.907162136378322
-10.77147014577811 -1.469473874224556 -6.697724846524144
-7.654369102520108 -7.459776007982457 -1.544079070636319
-4.624162367049379 -1.64368408191757 -7.914991799099118
-17.28416334761652 -0.8062621065440365 -2.640471158834151
-14.85154276963273 -1.197627927339399 -4.771519413138805
-18.02514462554622 -2.210856222261757 -1.133603855823525
-15.60984300706059 -5.064039028401881 -0.8570590440770803
-1.676972519160121 -1.737291216403677 -8.330619589682332
-7.476991208005767 -1.328658835529988 -7.551877494134978
-4.629872181702316 -7.936312597214308 -1.577499894139159
-18.3915190449719 -0.8016476734123685 -2.285421696753599
3.752318532134847 -7.807779149195924 -1.863735496047811
-2.083141508210593 -8.115197784454606 -1.917867057717819
3.333940165236719 -1.694564688395514 -8.070633282858916
2.221921779608414 -8.60015446962997 -1.271556321792946
-11.82930327014571 -0.8803835849503169 -5.570159968177913
-18.75844158094212 -0.9582939166988739 -0.9555101404278259
3 2 0 32
398
399
400
401
402
403
404
405
406
407
408
409
410
411
412
413
414
415
416
417
418
419
420
421
422
423
424
425
426
427
428
429
-13.47636116713278 5.617902913811571 -1.34679296728564
-13.40656345666199 1.409664505211088 -5.651873024854837
-17.88231570907212 1.418353412103565 -1.080268882650089
-10.84806134998251 1.480461568381414 -6.543491366570188
0.751524563128123 1.644605733807099 -8.230521481273676
-16.42416354130747 3.555412026589325 -1.435687011049839
0.809396141404495 8.03386256427008 -1.725458309078584
3.442424317197257 7.30885516686071 -4.023541652512677
3.442320993826165 3.96792534236681 -7.382810804335134
-9.775930060030657 6.88202616113667 -1.18412140624636
-7.649787560139004 1.527405082603647 -7.469625349969006
-4.621116953111482 7.911344507971921 -1.651775591314502
-17.31976900336781 2.652186460787188 -0.8382799873317756
-15.1495324742901 4.635974757032389 -1.266128081032481
-11.86545087972016 6.465896331578954 -1.197972886398573
-15.50529284036183 0.8926335827841478 -5.099472985710475
3.408130685082811 5.808597092605684 -5.845379328283043
-1.674717410584236 8.322858517782114 -1.750039042578462
-7.384570237856414 7.565077515248968 -1.331731634941151
-4.619303611197619 1.588719582318396 -7.930088319034026
-18.07582268909604 0.9970419945847105 -2.31960684578393
-18.3619982169125 2.474921628213574 -0.7821161286517108
-16.66136721838154 0.9097044149428761 -2.671593416679191
-2.019166146088568 1.931285447043223 -8.094639115963627
3.317270062639672 8.075919812818611 -1.668545545853048
-17.12144237950089 0.8342475819671445 -3.919295592536194
3.301113370504657 1.803932776166605 -8.551477951225094
-17.12308441024684 0.6913079816653809 -1.478209963682833
4.104055472312203 0.8645795512105235 -7.987443381721616
2.93326240111358 1.082428868931096 -7.480511087468042
-18.81363333845298 0.8273798780821144 -1.103991651054226
3.982592338236048 2.217064484375933 -7.281271354644056
3 3 0 32
430
431
432
433
434
435
436
437
438
439
440
441
442
443
444
445
446
447
448
449
450
451
452
453
454
455
456
457
458
459
460
461
-13.41220711372171 1.365968180401716 5.575807837472184
-13.50616266520375 5.661795825445 1.372184143664618
-17.59354526951746 1.118466858091666 1.341809151220981
-17.13692704805575 3.489142171942389 0.8521327092205593
-16.41307125745697 1.554391246084875 3.666838132838721
0.806860032494164 1.72044447040353 8.035815205865337
3.455240557804991 4.030835619508514 7.310375192650873
0.7371045192019099 8.236234397440654 1.638018425078717
3.444180288965434 7.381644131621831 3.979415475331673
-10.61392272105874 1.404049291149664 6.69772146694235
-7.621120988626114 7.45799027980045 1.55327351346853
-4.623508877232779 1.643793999291409 7.914979779099413
-17.0324016270765 0.8588180509382419 2.654109239874448
-15.14020799386648 1.277714528525274 4.657356106511363
-10.33202875040707 6.788437817221539 1.523043800048163
-12.33847683966756 1.222376819781806 6.618710421183107
-18.02493106412959 2.210851928064309 1.133844061696459
3.409512963757516 5.845031029588304 5.809806452351817
-15.61439449592924 5.061261349408949 0.8550769671606423
-1.677060598653135 1.73731702441415 8.330665535983874
-7.462733621263616 1.328073940796419 7.552802132941189
-4.626946786564097 7.936561386609991 1.579229507338849
-18.34298750334068 0.8010589022212126 2.320281574754649
-11.71689658962477 6.033803702585852 1.141954210359183
-11.89730946301312 0.8529274309271222 5.557405447196324
-2.03903961061888 8.117233735140616 1.892156327688162
3.328689406585174 1.68497177486328 8.072528170221554
3.297831215232629 8.548522451425372 1.812983092158399
4.100791451092372 7.984655217817147 0.8676633306537321
-18.75705445345384 0.9567802900142035 0.9607227363497938
2.921704765412025 7.476292628965775 1.092760283166983
3.98232532272604 7.27950400448526 2.227992339003034
3 4 0 26
462
463
464
465
466
467
468
469
470
471
472
473
474
475
476
477
478
479
480
481
482
483
484
485
486
487
-12.93001640159114 -5.879534841020053 1.404174051352841
-13.44411280816557 -1.391976670805727 5.65514193273844
-17.58721852959546 -1.329176831113879 1.111549087234777
-17.13663897233572 -0.8515126470912914 3.491633563874433
0.8306288817536762 -1.714868666257336 8.03450890295143
-16.55136831807043 -3.812952063699407 1.163699854584104
3.456338687417385 -7.315219519600351 4.025259738617641
0.8091966550281781 -8.043218681596061 1.710535854887988
3.47545370461416 -4.047140178947489 7.308130626150601
-10.28398652053284 -6.859338256116542 1.199494038397697
-7.863482028152969 -1.539050150295068 7.411373916690352
-4.654370318202438 -7.918310816647544 1.641929507887282
-14.97518086142757 -4.624918772805658 1.735632452304232
-18.15001627870442 -2.631666757304107 0.7502411038775694
-16.85919634960011 -2.455757193415653 0.870524795930897
-11.06514850873813 -1.492851657883066 6.482686484726219
-18.02615147855322 -1.129776364344157 2.209270844090285
-15.60999741264157 -0.8565346718321346 5.063694705604905
3.41241127949713 -5.826732620834974 5.82548108914107
-1.681361663577261 -8.33445686661504 1.729175656344621
-1.638768105645581 -1.746821807095441 8.33184566450818
-7.676380996909979 -7.436273257197334 1.592674813260532
-4.608513978529707 -1.589019969549373 7.934457552472169
3.329982730372251 -8.073319435174243 1.684298677827561
3.328332392221999 -1.658758163615728 8.072907613314344
-18.75647189506765 -0.9818916398166291 0.944424912894033
$EndNodes
$Elements
26 2532 1 2532
0 2 15 1
1 1 
0 4 15 1
2 3 
1 2 1 1
3 2 4 
1 4 1 10
4 3 20 
5 20 21 
6 21 22 
7 22 23 
8 23 24 
9 24 25 
10 25 26 
11 26 27 
12 27 28 
13 28 4 
1 7 1 10
14 3 29 
15 29 30 
16 30 31 
17 31 32 
18 32 33 
19 33 34 
20 34 35 
21 35 36 
22 36 37 
23 37 5 
1 9 1 9
24 6 38 
25 38 39 
26 39 40 
27 40 41 
28 41 42 
29 42 43 
30 43 44 
31 44 45 
32 45 1 
1 24 1 10
33 3 51 
34 51 52 
35 52 53 
36 53 54 
37 54 55 
38 55 56 
39 56 57 
40 57 58 
41 58 59 
42 59 7 
1 26 1 9
43 8 60 
44 60 61 
45 61 62 
46 62 63 
47 63 64 
48 64 65 
49 65 66 
50 66 67 
51 67 1 
1 41 1 10
52 3 73 
53 73 74 
54 74 75 
55 75 76 
56 76 77 
57 77 78 
58 78 79 
59 79 80 
60 80 81 
61 81 9 
1 43 1 9
62 10 82 
63 82 83 
64 83 84 
65 84 85 
66 85 86 
67 86 87 
68 87 88 
69 88 89 
70 89 1 
2 13 2 98
71 20 114 3 
72 3 114 29 
73 4 136 28 
74 46 136 4 
75 37 134 5 
76 5 134 48 
77 21 140 20 
78 20 140 114 
79 22 110 21 
80 110 140 21 
81 23 127 22 
82 22 127 110 
83 24 107 23 
84 107 127 23 
85 25 125 24 
86 24 125 107 
87 26 106 25 
88 106 125 25 
89 27 123 26 
90 26 123 106 
91 28 112 27 
92 112 123 27 
93 28 136 112 
94 29 143 30 
95 114 143 29 
96 30 139 31 
97 115 139 30 
98 30 143 115 
99 31 111 32 
100 31 139 111 
101 32 126 33 
102 111 126 32 
103 33 109 34 
104 33 126 109 
105 34 118 35 
106 109 118 34 
107 35 108 36 
108 35 118 108 
109 36 124 37 
110 108 124 36 
111 124 134 37 
112 47 116 46 
113 116 136 46 
114 48 113 47 
115 113 116 47 
116 48 134 113 
117 123 138 106 
118 106 141 125 
119 138 141 106 
120 125 137 107 
121 107 128 127 
122 107 137 128 
123 118 130 108 
124 108 135 124 
125 130 135 108 
126 109 119 118 
127 109 120 119 
128 109 126 120 
129 127 129 110 
130 129 142 110 
131 110 142 140 
132 111 132 126 
133 129 132 111 
134 111 139 129 
135 116 133 112 
136 112 136 116 
137 112 133 123 
138 113 117 116 
139 113 135 117 
140 113 134 124 
141 124 135 113 
142 114 140 115 
143 115 143 114 
144 115 142 139 
145 140 142 115 
146 117 133 116 
147 131 133 117 
148 117 135 131 
149 119 130 118 
150 120 121 119 
151 121 122 119 
152 122 130 119 
153 120 137 121 
154 126 132 120 
155 120 132 128 
156 128 137 120 
157 121 141 122 
158 121 137 125 
159 125 141 121 
160 122 131 130 
161 122 138 131 
162 122 141 138 
163 133 138 123 
164 128 129 127 
165 128 132 129 
166 139 142 129 
167 131 135 130 
168 131 138 133 
2 17 2 9
169 4 2 46 
170 46 2 49 
171 5 144 6 
172 48 144 5 
173 6 144 50 
174 46 49 47 
175 47 50 48 
176 47 49 50 
177 50 144 48 
2 20 2 63
178 1 151 12 
179 45 151 1 
180 19 163 2 
181 2 163 49 
182 6 165 38 
183 50 165 6 
184 12 151 13 
185 13 150 14 
186 13 166 150 
187 151 166 13 
188 14 160 15 
189 150 160 14 
190 15 149 16 
191 15 160 149 
192 16 156 17 
193 149 156 16 
194 17 148 18 
195 17 156 148 
196 18 157 19 
197 148 157 18 
198 157 163 19 
199 38 146 39 
200 38 165 146 
201 39 154 40 
202 146 154 39 
203 40 145 41 
204 40 154 145 
205 41 159 42 
206 145 159 41 
207 42 147 43 
208 42 159 147 
209 43 153 44 
210 147 153 43 
211 44 151 45 
212 44 166 151 
213 153 166 44 
214 49 152 50 
215 49 163 152 
216 152 165 50 
217 154 155 145 
218 155 161 145 
219 145 161 159 
220 152 158 146 
221 146 165 152 
222 146 158 154 
223 147 164 153 
224 159 162 147 
225 162 164 147 
226 148 156 155 
227 155 158 148 
228 148 158 157 
229 149 161 156 
230 160 162 149 
231 149 162 161 
232 153 164 150 
233 150 166 153 
234 150 164 160 
235 157 158 152 
236 152 163 157 
237 154 158 155 
238 156 161 155 
239 161 162 159 
240 160 164 162 
2 30 2 98
241 29 181 3 
242 3 181 51 
243 5 203 37 
244 68 203 5 
245 59 201 7 
246 7 201 70 
247 30 207 29 
248 29 207 181 
249 31 177 30 
250 177 207 30 
251 32 194 31 
252 31 194 177 
253 33 174 32 
254 174 194 32 
255 34 192 33 
256 33 192 174 
257 35 173 34 
258 173 192 34 
259 36 190 35 
260 35 190 173 
261 37 179 36 
262 179 190 36 
263 37 203 179 
264 51 210 52 
265 181 210 51 
266 52 206 53 
267 182 206 52 
268 52 210 182 
269 53 178 54 
270 53 206 178 
271 54 193 55 
272 178 193 54 
273 55 176 56 
274 55 193 176 
275 56 185 57 
276 176 185 56 
277 57 175 58 
278 57 185 175 
279 58 191 59 
280 175 191 58 
281 191 201 59 
282 69 183 68 
283 183 203 68 
284 70 180 69 
285 180 183 69 
286 70 201 180 
287 190 205 173 
288 173 208 192 
289 205 208 173 
290 192 204 174 
291 174 195 194 
292 174 204 195 
293 185 197 175 
294 175 202 191 
295 197 202 175 
296 176 186 185 
297 176 187 186 
298 176 193 187 
299 194 196 177 
300 196 209 177 
301 177 209 207 
302 178 199 193 
303 196 199 178 
304 178 206 196 
305 183 200 179 
306 179 203 183 
307 179 200 190 
308 180 184 183 
309 180 202 184 
310 180 201 191 
311 191 202 180 
312 181 207 182 
313 182 210 181 
314 182 209 206 
315 207 209 182 
316 184 200 183 
317 198 200 184 
318 184 202 198 
319 186 197 185 
320 187 188 186 
321 188 189 186 
322 189 197 186 
323 187 204 188 
324 193 199 187 
325 187 199 195 
326 195 204 187 
327 188 208 189 
328 188 204 192 
329 192 208 188 
330 189 198 197 
331 189 205 198 
332 189 208 205 
333 200 205 190 
334 195 196 194 
335 195 199 196 
336 206 209 196 
337 198 202 197 
338 198 205 200 
2 34 2 11
339 6 211 5 
340 5 211 68 
341 71 211 6 
342 7 212 8 
343 70 212 7 
344 8 212 72 
345 71 69 68 
346 68 211 71 
347 70 69 72 
348 72 69 71 
349 72 212 70 
2 37 2 63
350 1 219 45 
351 67 219 1 
352 38 233 6 
353 6 233 71 
354 8 232 60 
355 72 232 8 
356 39 218 38 
357 218 233 38 
358 40 225 39 
359 39 225 218 
360 41 213 40 
361 213 225 40 
362 42 220 41 
363 41 220 213 
364 43 227 42 
365 42 227 220 
366 44 217 43 
367 217 227 43 
368 45 219 44 
369 44 234 217 
370 219 234 44 
371 60 214 61 
372 60 232 214 
373 61 223 62 
374 214 223 61 
375 62 216 63 
376 62 223 216 
377 63 226 64 
378 216 226 63 
379 64 215 65 
380 64 226 215 
381 65 222 66 
382 215 222 65 
383 66 219 67 
384 66 234 219 
385 222 234 66 
386 71 221 72 
387 71 233 221 
388 221 232 72 
389 220 228 213 
390 224 225 213 
391 213 228 224 
392 221 229 214 
393 214 232 221 
394 214 229 223 
395 215 231 222 
396 226 230 215 
397 230 231 215 
398 223 224 216 
399 224 228 216 
400 216 228 226 
401 222 231 217 
402 217 234 222 
403 217 231 227 
404 218 229 221 
405 221 233 218 
406 225 229 218 
407 227 230 220 
408 220 230 228 
409 223 229 224 
410 224 229 225 
411 228 230 226 
412 227 231 230 
2 47 2 98
413 51 249 3 
414 3 249 73 
415 7 271 59 
416 90 271 7 
417 81 269 9 
418 9 269 92 
419 52 275 51 
420 51 275 249 
421 53 245 52 
422 245 275 52 
423 54 262 53 
424 53 262 245 
425 55 242 54 
426 242 262 54 
427 56 260 55 
428 55 260 242 
429 57 241 56 
430 241 260 56 
431 58 258 57 
432 57 258 241 
433 59 247 58 
434 247 258 58 
435 59 271 247 
436 73 278 74 
437 249 278 73 
438 74 274 75 
439 250 274 74 
440 74 278 250 
441 75 246 76 
442 75 274 246 
443 76 261 77 
444 246 261 76 
445 77 244 78 
446 77 261 244 
447 78 253 79 
448 244 253 78 
449 79 243 80 
450 79 253 243 
451 80 259 81 
452 243 259 80 
453 259 269 81 
454 91 251 90 
455 251 271 90 
456 92 248 91 
457 248 251 91 
458 92 269 248 
459 258 273 241 
460 241 276 260 
461 273 276 241 
462 260 272 242 
463 242 263 262 
464 242 272 263 
465 253 265 243 
466 243 270 259 
467 265 270 243 
468 244 254 253 
469 244 255 254 
470 244 261 255 
471 262 264 245 
472 264 277 245 
473 245 277 275 
474 246 267 261 
475 264 267 246 
476 246 274 264 
477 251 268 247 
478 247 271 251 
479 247 268 258 
480 248 252 251 
481 248 270 252 
482 248 269 259 
483 259 270 248 
484 249 275 250 
485 250 278 249 
486 250 277 274 
487 275 277 250 
488 252 268 251 
489 266 268 252 
490 252 270 266 
491 254 265 253 
492 255 256 254 
493 256 257 254 
494 257 265 254 
495 255 272 256 
496 261 267 255 
497 255 267 263 
498 263 272 255 
499 256 276 257 
500 256 272 260 
501 260 276 256 
502 257 266 265 
503 257 273 266 
504 257 276 273 
505 268 273 258 
506 263 264 262 
507 263 267 264 
508 274 277 264 
509 266 270 265 
510 266 273 268 
2 51 2 11
511 8 279 7 
512 7 279 90 
513 93 279 8 
514 9 280 10 
515 92 280 9 
516 10 280 94 
517 90 93 91 
518 90 279 93 
519 91 94 92 
520 91 93 94 
521 94 280 92 
2 54 2 63
522 1 287 67 
523 89 287 1 
524 60 299 8 
525 8 299 93 
526 10 301 82 
527 94 301 10 
528 61 293 60 
529 293 299 60 
530 62 284 61 
531 284 293 61 
532 63 292 62 
533 62 292 284 
534 64 285 63 
535 285 292 63 
536 65 296 64 
537 64 296 285 
538 66 286 65 
539 286 296 65 
540 67 287 66 
541 66 302 286 
542 287 302 66 
543 82 282 83 
544 82 301 282 
545 83 290 84 
546 282 290 83 
547 84 281 85 
548 84 290 281 
549 85 295 86 
550 281 295 85 
551 86 283 87 
552 86 295 283 
553 87 289 88 
554 283 289 87 
555 88 287 89 
556 88 302 287 
557 289 302 88 
558 93 288 94 
559 93 299 288 
560 288 301 94 
561 290 291 281 
562 291 297 281 
563 281 297 295 
564 288 294 282 
565 282 301 288 
566 282 294 290 
567 283 300 289 
568 295 298 283 
569 298 300 283 
570 284 292 291 
571 291 294 284 
572 284 294 293 
573 285 297 292 
574 296 298 285 
575 285 298 297 
576 289 300 286 
577 286 302 289 
578 286 300 296 
579 293 294 288 
580 288 299 293 
581 290 294 291 
582 292 297 291 
583 297 298 295 
584 296 300 298 
2 64 2 98
585 3 317 20 
586 73 317 3 
587 28 337 4 
588 4 337 97 
589 9 339 81 
590 95 339 9 
591 20 346 21 
592 317 346 20 
593 21 342 22 
594 318 342 21 
595 21 346 318 
596 22 314 23 
597 22 342 314 
598 23 329 24 
599 314 329 23 
600 24 312 25 
601 24 329 312 
602 25 321 26 
603 312 321 25 
604 26 311 27 
605 26 321 311 
606 27 327 28 
607 311 327 27 
608 327 337 28 
609 74 343 73 
610 73 343 317 
611 75 313 74 
612 313 343 74 
613 76 330 75 
614 75 330 313 
615 77 310 76 
616 310 330 76 
617 78 328 77 
618 77 328 310 
619 79 309 78 
620 309 328 78 
621 80 326 79 
622 79 326 309 
623 81 315 80 
624 315 326 80 
625 81 339 315 
626 96 319 95 
627 319 339 95 
628 97 316 96 
629 316 319 96 
630 97 337 316 
631 326 341 309 
632 309 344 328 
633 341 344 309 
634 328 340 310 
635 310 331 330 
636 310 340 331 
637 321 333 311 
638 311 338 327 
639 333 338 311 
640 312 322 321 
641 312 323 322 
642 312 329 323 
643 330 332 313 
644 332 345 313 
645 313 345 343 
646 314 335 329 
647 332 335 314 
648 314 342 332 
649 319 336 315 
650 315 339 319 
651 315 336 326 
652 316 320 319 
653 316 338 320 
654 316 337 327 
655 327 338 316 
656 317 343 318 
657 318 346 317 
658 318 345 342 
659 343 345 318 
660 320 336 319 
661 334 336 320 
662 320 338 334 
663 322 333 321 
664 323 324 322 
665 324 325 322 
666 325 333 322 
667 323 340 324 
668 329 335 323 
669 323 335 331 
670 331 340 323 
671 324 344 325 
672 324 340 328 
673 328 344 324 
674 325 334 333 
675 325 341 334 
676 325 344 341 
677 336 341 326 
678 331 332 330 
679 331 335 332 
680 342 345 332 
681 334 338 333 
682 334 341 336 
2 68 2 11
683 4 348 2 
684 2 348 99 
685 97 348 4 
686 10 347 9 
687 9 347 95 
688 98 347 10 
689 95 98 96 
690 95 347 98 
691 96 99 97 
692 96 98 99 
693 99 348 97 
2 71 2 63
694 12 355 1 
695 1 355 89 
696 2 369 19 
697 99 369 2 
698 82 368 10 
699 10 368 98 
700 13 355 12 
701 14 354 13 
702 354 370 13 
703 13 370 355 
704 15 364 14 
705 14 364 354 
706 16 353 15 
707 353 364 15 
708 17 360 16 
709 16 360 353 
710 18 352 17 
711 352 360 17 
712 19 361 18 
713 18 361 352 
714 19 369 361 
715 83 350 82 
716 350 368 82 
717 84 358 83 
718 83 358 350 
719 85 349 84 
720 349 358 84 
721 86 363 85 
722 85 363 349 
723 87 351 86 
724 351 363 86 
725 88 357 87 
726 87 357 351 
727 89 355 88 
728 355 370 88 
729 88 370 357 
730 98 356 99 
731 98 368 356 
732 356 369 99 
733 349 359 358 
734 349 365 359 
735 363 365 349 
736 350 362 356 
737 356 368 350 
738 358 362 350 
739 357 367 351 
740 351 366 363 
741 351 367 366 
742 359 360 352 
743 352 362 359 
744 361 362 352 
745 360 365 353 
746 353 366 364 
747 365 366 353 
748 354 367 357 
749 357 370 354 
750 364 367 354 
751 356 362 361 
752 361 369 356 
753 359 362 358 
754 359 365 360 
755 363 366 365 
756 366 367 364 
3 1 4 431
757 153 164 150 129 
758 385 153 111 371 
759 385 153 371 43 
760 147 153 43 371 
761 385 153 43 44 
762 132 371 111 153 
763 166 150 13 110 
764 132 371 153 147 
765 380 136 392 163 
766 387 150 372 127 
767 391 115 30 384 
768 372 13 387 102 
769 163 2 392 49 
770 114 115 143 391 
771 164 128 150 129 
772 384 373 115 151 
773 384 45 373 151 
774 102 372 14 105 
775 145 161 119 130 
776 385 166 111 153 
777 374 160 372 14 
778 385 166 153 44 
779 375 387 110 13 
780 162 119 159 161 
781 122 119 161 130 
782 382 141 149 156 
783 162 121 119 161 
784 374 14 372 105 
785 162 120 137 164 
786 145 155 161 130 
787 159 120 119 162 
788 386 115 373 151 
789 132 371 147 126 
790 132 371 126 111 
791 376 142 151 115 
792 161 155 122 130 
793 27 393 379 112 
794 120 164 147 132 
795 385 166 139 111 
796 385 111 32 371 
797 382 141 156 106 
798 45 376 151 384 
799 170 6 38 394 
800 162 137 149 160 
801 372 160 374 107 
802 160 162 137 164 
803 381 120 159 147 
804 373 397 114 386 
805 164 153 147 132 
806 162 159 120 147 
807 120 121 119 162 
808 13 151 110 375 
809 152 165 50 378 
810 153 129 166 111 
811 121 149 141 161 
812 149 141 161 156 
813 376 142 115 139 
814 150 153 129 166 
815 373 386 12 100 
816 383 130 154 145 
817 386 115 151 140 
818 137 149 121 162 
819 381 371 33 126 
820 148 393 157 18 
821 111 126 32 371 
822 122 161 141 156 
823 145 119 159 118 
824 150 160 128 164 
825 120 128 164 132 
826 381 120 147 126 
827 119 159 161 145 
828 120 128 137 164 
829 374 137 160 149 
830 100 375 21 386 
831 376 142 139 166 
832 13 12 375 101 
833 385 166 376 139 
834 385 376 166 44 
835 24 15 374 105 
836 372 128 150 160 
837 102 23 372 105 
838 138 131 155 148 
839 142 166 129 139 
840 114 397 20 386 
841 383 130 145 118 
842 387 101 13 375 
843 162 149 121 161 
844 372 127 23 387 
845 142 140 151 115 
846 158 155 131 148 
847 15 374 16 25 
848 164 162 120 147 
849 49 163 152 380 
850 119 109 120 159 
851 374 137 149 125 
852 376 142 166 151 
853 390 138 106 156 
854 383 145 40 389 
855 389 109 118 159 
856 110 151 166 142 
857 139 166 129 111 
858 389 109 159 381 
859 119 109 159 118 
860 37 377 394 38 
861 389 109 34 118 
862 35 389 34 118 
863 155 122 138 156 
864 390 138 156 148 
865 156 138 155 148 
866 372 128 160 107 
867 122 155 161 156 
868 382 390 106 156 
869 382 149 16 156 
870 374 15 149 160 
871 381 371 126 147 
872 113 377 124 146 
873 36 383 35 108 
874 47 380 50 378 
875 138 122 141 156 
876 372 387 23 102 
877 155 145 154 130 
878 108 383 35 118 
879 160 137 128 164 
880 166 129 110 142 
881 154 40 39 383 
882 39 388 146 154 
883 135 158 113 146 
884 36 39 383 388 
885 45 376 384 168 
886 140 151 110 142 
887 158 133 116 157 
888 381 396 147 42 
889 28 379 136 112 
890 141 125 149 121 
891 388 377 39 146 
892 381 172 42 33 
893 158 116 113 152 
894 161 141 121 122 
895 145 159 41 389 
896 131 158 148 133 
897 158 116 133 117 
898 147 126 120 132 
899 387 101 375 22 
900 50 394 378 165 
901 42 381 159 147 
902 17 156 148 390 
903 133 393 157 148 
904 6 394 50 165 
905 118 145 119 130 
906 154 145 40 383 
907 129 153 132 111 
908 161 121 119 122 
909 18 17 148 390 
910 46 392 49 380 
911 158 155 135 131 
912 100 375 386 12 
913 135 113 158 117 
914 137 149 125 121 
915 158 113 116 117 
916 148 138 131 133 
917 373 397 386 100 
918 392 103 19 395 
919 50 48 47 378 
920 383 130 118 108 
921 158 155 154 135 
922 39 36 171 388 
923 130 154 155 135 
924 157 393 379 18 
925 27 18 104 379 
926 150 128 127 129 
927 155 130 135 131 
928 155 122 131 138 
929 2 392 103 19 
930 4 392 103 2 
931 158 152 157 116 
932 387 101 22 102 
933 16 374 15 149 
934 120 137 121 162 
935 4 392 2 46 
936 41 40 145 389 
937 391 30 115 143 
938 372 160 150 14 
939 130 155 122 131 
940 16 374 382 25 
941 36 39 40 383 
942 380 49 46 47 
943 383 40 35 389 
944 145 159 389 118 
945 389 109 381 34 
946 394 37 5 134 
947 397 3 29 114 
948 146 152 158 113 
949 4 28 103 395 
950 17 18 27 390 
951 381 41 42 159 
952 377 37 171 38 
953 388 135 146 154 
954 388 135 154 108 
955 106 138 141 156 
956 133 393 148 123 
957 107 137 128 160 
958 372 127 107 23 
959 382 16 17 156 
960 394 377 37 134 
961 146 158 154 135 
962 1 45 151 373 
963 379 393 27 18 
964 385 376 44 169 
965 25 24 15 374 
966 131 135 158 117 
967 163 19 157 379 
968 382 390 156 17 
969 154 383 39 388 
970 4 392 46 136 
971 373 12 1 100 
972 135 124 146 113 
973 47 116 380 113 
974 3 397 20 114 
975 34 42 33 381 
976 158 131 117 133 
977 130 108 154 135 
978 133 158 148 157 
979 133 393 123 112 
980 394 377 165 38 
981 388 37 36 171 
982 394 6 38 165 
983 4 392 395 103 
984 28 379 104 19 
985 49 380 50 47 
986 377 38 39 146 
987 157 112 133 116 
988 40 41 35 389 
989 133 148 138 123 
990 165 377 394 134 
991 379 116 157 163 
992 5 394 134 48 
993 392 163 49 380 
994 382 374 16 149 
995 35 41 34 389 
996 373 11 167 397 
997 104 28 27 379 
998 379 116 163 136 
999 134 48 378 113 
1000 100 375 12 101 
1001 6 144 50 394 
1002 36 40 35 383 
1003 163 157 152 116 
1004 392 2 46 49 
1005 395 19 379 28 
1006 34 41 42 381 
1007 18 19 104 379 
1008 165 377 146 38 
1009 385 376 169 31 
1010 17 26 16 382 
1011 380 136 163 116 
1012 26 25 16 382 
1013 17 27 26 390 
1014 146 165 152 113 
1015 33 32 126 371 
1016 22 23 387 102 
1017 113 377 146 165 
1018 113 377 165 134 
1019 386 397 20 100 
1020 45 376 168 44 
1021 372 23 24 105 
1022 29 11 397 167 
1023 397 11 20 100 
1024 20 21 386 100 
1025 388 37 124 36 
1026 391 29 167 30 
1027 3 11 20 397 
1028 11 3 29 397 
1029 48 50 394 378 
1030 14 13 372 102 
1031 383 130 108 154 
1032 394 134 48 378 
1033 5 144 394 48 
1034 32 31 111 385 
1035 111 31 139 385 
1036 21 22 375 101 
1037 30 115 139 376 
1038 15 14 374 105 
1039 100 375 101 21 
1040 391 29 30 143 
1041 373 11 397 100 
1042 147 43 42 396 
1043 397 391 114 29 
1044 139 31 30 376 
1045 164 129 132 128 
1046 132 129 164 153 
1047 150 110 129 127 
1048 129 110 150 166 
1049 397 391 373 114 
1050 147 371 43 396 
1051 24 374 107 372 
1052 107 23 24 372 
1053 372 128 127 150 
1054 387 150 127 110 
1055 372 128 107 127 
1056 14 13 150 372 
1057 384 373 391 115 
1058 115 114 373 391 
1059 373 11 100 1 
1060 1 45 373 167 
1061 373 11 1 167 
1062 33 32 371 172 
1063 381 396 371 147 
1064 15 14 160 374 
1065 13 110 151 166 
1066 381 172 33 371 
1067 387 101 102 13 
1068 375 387 22 110 
1069 140 110 151 375 
1070 21 22 110 375 
1071 140 21 110 375 
1072 376 115 151 384 
1073 151 376 44 166 
1074 26 25 382 106 
1075 169 376 44 168 
1076 169 31 376 168 
1077 30 115 376 384 
1078 376 31 30 168 
1079 377 37 134 124 
1080 388 37 171 377 
1081 388 171 39 377 
1082 171 38 39 377 
1083 152 165 378 113 
1084 392 19 163 395 
1085 47 380 378 113 
1086 378 48 47 113 
1087 2 392 19 163 
1088 379 116 136 112 
1089 379 393 157 112 
1090 18 19 379 157 
1091 380 163 152 116 
1092 19 163 395 379 
1093 380 136 116 46 
1094 116 380 46 47 
1095 33 381 126 109 
1096 381 120 126 109 
1097 381 120 109 159 
1098 382 390 17 26 
1099 381 389 34 41 
1100 34 381 33 109 
1101 381 389 41 159 
1102 382 141 106 125 
1103 382 141 125 149 
1104 125 382 25 106 
1105 382 390 26 106 
1106 167 384 30 168 
1107 384 45 168 167 
1108 384 45 167 373 
1109 45 376 44 151 
1110 30 384 376 168 
1111 43 385 44 169 
1112 371 169 385 43 
1113 371 169 43 172 
1114 385 376 31 139 
1115 32 31 385 169 
1116 133 393 112 157 
1117 24 107 374 125 
1118 374 137 125 107 
1119 374 137 107 160 
1120 382 374 125 25 
1121 25 24 374 125 
1122 386 375 21 140 
1123 386 115 140 114 
1124 386 375 140 151 
1125 20 21 140 386 
1126 140 114 20 386 
1127 388 37 377 124 
1128 134 378 165 113 
1129 48 394 50 144 
1130 394 134 378 165 
1131 380 136 46 392 
1132 6 170 5 394 
1133 379 116 112 157 
1134 395 19 28 103 
1135 170 37 5 394 
1136 381 172 371 396 
1137 380 152 50 378 
1138 396 371 43 172 
1139 380 116 152 113 
1140 49 152 50 380 
1141 380 152 378 113 
1142 396 43 42 172 
1143 387 150 110 13 
1144 124 377 388 146 
1145 387 150 13 372 
1146 388 135 124 146 
1147 22 127 110 387 
1148 22 23 127 387 
1149 388 135 108 124 
1150 36 388 383 108 
1151 388 36 124 108 
1152 154 383 388 108 
1153 381 172 396 42 
1154 113 377 134 124 
1155 144 6 5 394 
1156 379 28 27 112 
1157 383 145 389 118 
1158 373 151 1 12 
1159 383 389 35 118 
1160 390 393 27 123 
1161 390 138 148 123 
1162 390 138 123 106 
1163 18 390 148 393 
1164 390 18 27 393 
1165 390 26 106 123 
1166 390 27 26 123 
1167 125 374 382 149 
1168 167 391 30 384 
1169 391 29 143 114 
1170 397 391 29 167 
1171 384 373 167 391 
1172 397 391 167 373 
1173 371 169 172 32 
1174 371 169 32 385 
1175 12 375 386 151 
1176 386 115 114 373 
1177 373 386 151 12 
1178 392 395 163 136 
1179 395 28 379 136 
1180 24 374 372 105 
1181 163 395 379 136 
1182 4 392 136 395 
1183 13 151 375 12 
1184 4 28 395 136 
1185 393 390 148 123 
1186 170 38 37 394 
1187 393 27 123 112 
3 2 4 458
1188 222 231 217 196 
1189 222 411 398 178 
1190 54 398 240 237 
1191 237 398 240 65 
1192 215 222 65 398 
1193 199 398 178 222 
1194 234 217 44 177 
1195 199 398 222 215 
1196 420 44 423 177 
1197 413 217 194 177 
1198 419 182 52 410 
1199 44 169 413 399 
1200 207 423 30 177 
1201 182 210 181 419 
1202 217 231 195 196 
1203 410 400 182 219 
1204 410 67 400 219 
1205 43 169 399 172 
1206 411 234 222 66 
1207 401 227 399 43 
1208 411 65 398 237 
1209 168 413 423 44 
1210 172 399 43 401 
1211 186 226 230 228 
1212 188 186 230 228 
1213 228 186 216 197 
1214 418 182 400 219 
1215 220 208 188 228 
1216 408 208 220 213 
1217 199 398 215 193 
1218 403 209 219 182 
1219 199 398 193 178 
1220 216 224 228 197 
1221 231 204 187 230 
1222 207 420 423 177 
1223 220 208 228 213 
1224 199 187 215 231 
1225 399 227 401 174 
1226 54 398 411 178 
1227 187 186 226 230 
1228 67 403 219 410 
1229 402 421 36 39 
1230 197 224 228 189 
1231 418 29 428 181 
1232 403 196 411 234 
1233 408 208 213 173 
1234 187 226 176 215 
1235 197 228 186 189 
1236 199 215 222 231 
1237 189 228 208 213 
1238 400 418 167 428 
1239 230 231 204 227 
1240 225 421 218 39 
1241 196 411 234 222 
1242 230 204 220 227 
1243 188 186 187 230 
1244 403 209 182 206 
1245 222 217 234 196 
1246 215 187 226 230 
1247 409 197 223 216 
1248 400 167 418 425 
1249 225 224 198 205 
1250 418 182 219 207 
1251 412 55 64 407 
1252 189 224 228 213 
1253 72 221 232 405 
1254 230 220 188 228 
1255 54 398 178 193 
1256 227 231 195 217 
1257 216 186 226 185 
1258 187 199 195 231 
1259 224 189 205 213 
1260 195 204 187 231 
1261 400 418 428 181 
1262 193 187 176 215 
1263 167 420 168 418 
1264 403 196 234 209 
1265 420 44 168 423 
1266 196 411 222 178 
1267 403 196 209 206 
1268 33 42 401 172 
1269 401 204 227 220 
1270 399 195 217 227 
1271 228 186 226 216 
1272 205 225 224 213 
1273 188 204 220 230 
1274 399 169 32 172 
1275 403 196 206 411 
1276 167 168 420 45 
1277 168 413 44 169 
1278 427 429 233 6 
1279 409 197 216 185 
1280 209 207 219 182 
1281 5 424 68 203 
1282 401 204 220 192 
1283 403 209 234 219 
1284 226 176 186 187 
1285 42 401 41 34 
1286 399 194 174 32 
1287 416 62 216 409 
1288 219 234 177 209 
1289 196 411 178 206 
1290 416 176 226 407 
1291 186 176 226 185 
1292 233 406 221 71 
1293 180 404 191 214 
1294 417 205 213 225 
1295 223 61 214 415 
1296 205 189 208 213 
1297 427 429 424 233 
1298 216 223 224 197 
1299 37 402 203 179 
1300 187 215 231 230 
1301 399 195 227 174 
1302 228 208 188 189 
1303 200 421 218 225 
1304 417 205 225 190 
1305 65 412 398 240 
1306 198 229 224 225 
1307 42 220 401 227 
1308 409 57 58 175 
1309 413 169 32 399 
1310 214 61 404 415 
1311 62 61 223 409 
1312 408 220 41 213 
1313 185 57 409 175 
1314 195 204 231 227 
1315 177 234 196 209 
1316 408 417 173 213 
1317 406 71 233 429 
1318 233 424 406 429 
1319 67 403 410 236 
1320 177 207 219 209 
1321 72 414 405 69 
1322 412 64 55 240 
1323 71 6 233 429 
1324 188 186 228 189 
1325 407 412 215 64 
1326 208 192 220 188 
1327 40 39 417 225 
1328 226 63 216 416 
1329 199 187 193 215 
1330 168 413 169 31 
1331 215 226 407 64 
1332 62 223 216 409 
1333 422 238 60 8 
1334 185 216 186 197 
1335 184 214 202 229 
1336 178 199 222 196 
1337 202 224 223 197 
1338 225 417 40 213 
1339 418 423 207 420 
1340 184 214 229 221 
1341 406 69 414 71 
1342 184 221 229 218 
1343 197 202 224 198 
1344 204 220 192 188 
1345 224 189 198 205 
1346 405 70 72 69 
1347 225 198 200 205 
1348 61 409 58 415 
1349 61 58 239 415 
1350 183 184 200 218 
1351 218 421 402 39 
1352 200 184 229 218 
1353 171 36 39 402 
1354 184 221 183 180 
1355 202 229 224 198 
1356 184 221 218 183 
1357 195 194 217 196 
1358 71 406 69 68 
1359 189 197 224 198 
1360 184 214 221 180 
1361 423 413 177 44 
1362 223 229 224 202 
1363 229 198 200 225 
1364 168 413 31 423 
1365 41 401 42 220 
1366 216 63 62 416 
1367 419 52 182 210 
1368 41 401 408 34 
1369 61 62 58 409 
1370 416 57 62 409 
1371 204 188 187 230 
1372 184 214 180 202 
1373 415 202 214 223 
1374 416 176 407 56 
1375 59 7 422 201 
1376 399 194 32 413 
1377 36 421 402 179 
1378 38 218 233 402 
1379 424 37 5 170 
1380 200 421 225 190 
1381 40 39 36 417 
1382 29 3 428 181 
1383 415 202 223 175 
1384 63 407 226 64 
1385 404 59 239 60 
1386 68 424 5 211 
1387 204 195 174 227 
1388 173 205 208 213 
1389 200 421 190 179 
1390 181 3 428 51 
1391 170 5 424 426 
1392 424 427 170 426 
1393 1 219 400 67 
1394 425 45 1 167 
1395 236 411 66 403 
1396 33 42 34 401 
1397 408 41 40 213 
1398 408 417 213 40 
1399 214 191 180 202 
1400 409 197 185 175 
1401 214 229 223 202 
1402 167 1 425 400 
1403 61 404 60 214 
1404 171 39 38 402 
1405 170 427 6 426 
1406 407 64 56 55 
1407 203 37 5 424 
1408 225 200 229 218 
1409 202 223 175 197 
1410 414 180 69 183 
1411 68 424 406 203 
1412 415 59 58 239 
1413 183 200 179 218 
1414 6 38 427 170 
1415 37 402 171 38 
1416 225 200 190 205 
1417 400 181 428 51 
1418 429 68 424 406 
1419 402 183 218 233 
1420 63 57 62 416 
1421 203 183 406 68 
1422 70 422 7 201 
1423 402 427 38 170 
1424 408 401 41 220 
1425 63 56 57 416 
1426 406 424 233 203 
1427 69 72 414 71 
1428 402 183 233 203 
1429 422 60 232 8 
1430 198 202 229 184 
1431 37 36 171 402 
1432 201 70 405 180 
1433 30 168 418 167 
1434 71 6 429 211 
1435 62 57 58 409 
1436 422 212 8 72 
1437 38 37 402 170 
1438 64 63 407 56 
1439 229 198 184 200 
1440 429 68 406 71 
1441 236 411 403 53 
1442 40 35 41 408 
1443 34 41 35 408 
1444 35 40 36 417 
1445 218 183 221 233 
1446 412 54 240 55 
1447 169 32 31 413 
1448 180 404 214 232 
1449 44 45 420 168 
1450 67 403 236 66 
1451 180 404 232 201 
1452 399 32 33 172 
1453 400 428 11 51 
1454 167 29 11 428 
1455 214 232 221 180 
1456 418 29 30 167 
1457 419 51 235 52 
1458 428 3 11 51 
1459 29 3 11 428 
1460 59 404 422 60 
1461 429 68 71 211 
1462 169 44 43 399 
1463 411 65 237 66 
1464 70 405 422 201 
1465 70 72 422 405 
1466 418 29 167 428 
1467 411 178 53 54 
1468 53 206 178 411 
1469 168 31 30 423 
1470 182 206 52 403 
1471 43 42 172 401 
1472 418 423 420 168 
1473 419 51 52 210 
1474 400 11 428 167 
1475 65 412 240 64 
1476 6 5 170 426 
1477 422 7 8 212 
1478 403 206 52 53 
1479 196 231 199 222 
1480 196 199 231 195 
1481 217 177 196 194 
1482 196 177 217 234 
1483 411 65 66 222 
1484 65 412 64 215 
1485 412 54 55 193 
1486 65 412 215 398 
1487 399 227 217 43 
1488 413 217 177 44 
1489 399 195 174 194 
1490 399 44 43 217 
1491 410 400 419 182 
1492 181 400 182 419 
1493 400 11 167 1 
1494 1 400 235 67 
1495 400 11 1 235 
1496 399 195 194 217 
1497 72 232 422 405 
1498 43 42 401 227 
1499 232 422 8 72 
1500 219 234 44 177 
1501 424 233 402 427 
1502 402 233 38 427 
1503 402 183 203 179 
1504 402 421 218 179 
1505 402 39 38 218 
1506 403 182 219 410 
1507 219 403 66 234 
1508 409 61 223 415 
1509 236 411 53 237 
1510 236 411 237 66 
1511 182 403 52 410 
1512 236 403 52 53 
1513 404 59 201 191 
1514 415 59 239 404 
1515 404 61 239 415 
1516 61 239 60 404 
1517 405 221 232 180 
1518 6 38 233 427 
1519 405 414 180 69 
1520 180 70 405 69 
1521 233 183 221 406 
1522 429 426 6 427 
1523 183 69 414 406 
1524 406 183 69 68 
1525 412 176 55 407 
1526 412 176 407 215 
1527 215 226 176 407 
1528 409 197 175 223 
1529 407 416 56 63 
1530 176 407 56 55 
1531 407 416 63 226 
1532 408 208 173 192 
1533 408 208 192 220 
1534 408 34 192 173 
1535 408 417 40 35 
1536 408 417 35 173 
1537 34 408 35 173 
1538 235 410 52 236 
1539 410 67 236 235 
1540 410 67 235 400 
1541 67 403 66 219 
1542 410 403 52 236 
1543 411 65 222 398 
1544 54 398 237 411 
1545 411 403 53 206 
1546 237 411 53 54 
1547 234 411 403 66 
1548 33 174 401 192 
1549 401 204 192 174 
1550 401 204 174 227 
1551 408 401 192 34 
1552 33 401 34 192 
1553 412 176 215 193 
1554 412 54 193 398 
1555 412 54 398 240 
1556 412 176 193 55 
1557 398 412 215 193 
1558 429 426 427 424 
1559 402 183 179 218 
1560 424 427 402 170 
1561 402 37 424 170 
1562 419 51 400 235 
1563 235 400 11 51 
1564 201 405 232 180 
1565 405 232 422 201 
1566 70 422 72 212 
1567 33 401 174 399 
1568 413 217 44 399 
1569 59 7 238 422 
1570 413 217 399 194 
1571 59 238 60 422 
1572 31 413 194 177 
1573 413 32 31 194 
1574 72 221 405 414 
1575 406 414 221 71 
1576 221 180 414 183 
1577 414 72 221 71 
1578 405 221 180 414 
1579 183 414 221 406 
1580 415 202 175 191 
1581 58 415 175 191 
1582 415 409 58 175 
1583 409 415 223 175 
1584 174 32 33 399 
1585 423 31 30 177 
1586 238 7 8 422 
1587 37 36 402 179 
1588 185 416 216 409 
1589 6 5 426 211 
1590 185 57 416 409 
1591 429 426 424 211 
1592 417 205 190 173 
1593 417 39 421 225 
1594 417 205 173 213 
1595 417 39 36 421 
1596 35 417 190 173 
1597 35 417 36 190 
1598 418 423 168 30 
1599 418 182 207 181 
1600 418 423 30 207 
1601 207 29 30 418 
1602 207 29 418 181 
1603 192 401 408 220 
1604 235 419 52 410 
1605 419 51 210 181 
1606 419 51 181 400 
1607 410 400 235 419 
1608 429 426 211 6 
1609 426 5 424 211 
1610 232 404 214 60 
1611 33 401 399 172 
1612 180 404 201 191 
1613 425 420 219 45 
1614 167 425 420 418 
1615 219 44 420 177 
1616 167 420 425 45 
1617 425 219 420 418 
1618 207 219 420 177 
1619 44 45 219 420 
1620 418 219 420 207 
1621 425 1 219 400 
1622 203 183 233 406 
1623 422 404 59 201 
1624 429 68 211 424 
1625 219 45 1 425 
1626 418 182 181 400 
1627 415 202 191 214 
1628 214 415 404 191 
1629 400 418 219 425 
1630 415 59 404 191 
1631 415 59 191 58 
1632 200 421 179 218 
1633 190 421 36 179 
1634 417 421 190 225 
1635 417 421 36 190 
1636 402 37 203 424 
1637 203 233 402 424 
1638 70 212 7 422 
1639 423 413 31 177 
1640 232 404 422 201 
1641 226 416 216 185 
1642 416 56 57 185 
1643 416 176 56 185 
1644 416 176 185 226 
1645 422 404 232 60 
3 3 4 457
1646 286 431 296 65 
1647 76 430 308 305 
1648 289 87 283 430 
1649 305 430 308 87 
1650 264 300 267 289 
1651 267 430 246 289 
1652 267 430 289 283 
1653 7 457 90 271 
1654 452 250 74 442 
1655 66 431 237 448 
1656 90 457 7 279 
1657 278 452 249 250 
1658 442 432 250 287 
1659 442 89 432 287 
1660 431 240 65 237 
1661 281 297 254 265 
1662 263 431 296 286 
1663 296 431 453 65 
1664 453 431 296 242 
1665 433 448 245 66 
1666 298 297 254 295 
1667 257 254 297 265 
1668 440 276 285 292 
1669 297 298 254 256 
1670 460 461 299 8 
1671 272 300 298 255 
1672 281 297 265 291 
1673 255 298 254 295 
1674 446 250 432 287 
1675 267 430 283 261 
1676 267 430 261 246 
1677 434 277 287 250 
1678 297 257 265 291 
1679 65 240 453 64 
1680 255 300 283 267 
1681 443 87 430 305 
1682 76 430 443 246 
1683 440 276 292 241 
1684 442 88 287 434 
1685 55 453 64 444 
1686 272 298 296 285 
1687 457 437 271 59 
1688 296 300 298 272 
1689 439 255 295 283 
1690 460 461 457 299 
1691 289 283 300 267 
1692 283 298 255 295 
1693 256 298 254 255 
1694 66 287 245 433 
1695 264 300 289 286 
1696 436 94 301 288 
1697 443 264 289 302 
1698 276 285 297 256 
1699 245 286 264 302 
1700 276 297 285 292 
1701 434 277 250 274 
1702 289 302 264 286 
1703 432 235 446 67 
1704 441 265 290 281 
1705 446 250 287 275 
1706 285 272 298 256 
1707 439 445 77 261 
1708 284 455 293 61 
1709 76 430 246 261 
1710 297 276 257 292 
1711 245 286 302 66 
1712 254 295 281 253 
1713 300 296 286 263 
1714 255 263 300 267 
1715 439 255 283 261 
1716 297 254 295 281 
1717 300 272 263 255 
1718 444 272 296 285 
1719 235 433 52 446 
1720 264 434 277 302 
1721 66 67 433 236 
1722 80 441 79 243 
1723 264 434 302 443 
1724 55 64 453 240 
1725 263 431 286 262 
1726 431 240 237 54 
1727 284 266 273 291 
1728 264 434 443 274 
1729 299 438 93 461 
1730 441 265 281 253 
1731 448 236 66 433 
1732 298 297 285 256 
1733 64 453 296 444 
1734 275 277 250 287 
1735 266 284 294 291 
1736 64 444 63 56 
1737 283 298 300 255 
1738 299 93 438 288 
1739 244 255 254 295 
1740 444 272 285 260 
1741 434 277 302 287 
1742 451 273 241 292 
1743 84 281 450 441 
1744 432 446 287 67 
1745 302 277 245 287 
1746 264 434 274 277 
1747 450 244 295 439 
1748 295 254 244 253 
1749 90 457 438 271 
1750 299 93 8 461 
1751 299 457 438 461 
1752 292 273 257 291 
1753 451 273 292 284 
1754 273 292 284 291 
1755 263 431 262 242 
1756 292 257 297 291 
1757 440 451 241 292 
1758 285 63 440 292 
1759 296 285 64 444 
1760 439 445 261 283 
1761 248 435 259 282 
1762 253 79 441 243 
1763 94 436 91 447 
1764 273 257 276 292 
1765 461 90 457 438 
1766 265 290 281 291 
1767 80 83 441 449 
1768 296 300 272 263 
1769 277 245 264 302 
1770 290 84 83 441 
1771 83 449 282 290 
1772 270 294 248 282 
1773 441 265 253 243 
1774 442 88 434 304 
1775 277 275 245 287 
1776 456 10 306 82 
1777 294 268 251 293 
1778 439 454 283 86 
1779 59 437 271 247 
1780 260 285 276 256 
1781 435 449 282 83 
1782 439 308 86 77 
1783 294 251 248 288 
1784 256 297 276 257 
1785 295 85 281 450 
1786 284 268 266 294 
1787 294 251 268 252 
1788 261 255 283 267 
1789 448 236 433 53 
1790 91 438 93 447 
1791 295 439 283 86 
1792 292 62 451 284 
1793 268 455 293 284 
1794 432 459 249 446 
1795 253 281 254 265 
1796 281 84 290 441 
1797 264 289 267 246 
1798 256 254 297 257 
1799 284 62 451 61 
1800 294 270 266 291 
1801 235 433 446 67 
1802 270 248 294 252 
1803 272 285 260 256 
1804 294 248 251 252 
1805 273 268 266 284 
1806 249 446 459 51 
1807 450 244 253 295 
1808 92 94 436 91 
1809 290 441 83 449 
1810 290 270 294 291 
1811 449 307 80 83 
1812 270 290 265 291 
1813 293 455 437 61 
1814 58 239 437 61 
1815 263 286 264 262 
1816 265 266 270 291 
1817 91 438 90 93 
1818 266 257 273 291 
1819 443 87 305 88 
1820 293 251 294 288 
1821 448 236 53 237 
1822 63 444 64 285 
1823 256 272 298 255 
1824 85 84 281 450 
1825 452 74 250 278 
1826 289 443 430 246 
1827 265 257 266 291 
1828 63 444 440 56 
1829 80 83 84 441 
1830 450 79 84 441 
1831 55 453 242 431 
1832 450 244 439 78 
1833 269 456 9 81 
1834 456 306 9 81 
1835 294 248 282 288 
1836 238 457 7 59 
1837 58 451 62 61 
1838 439 295 85 86 
1839 435 81 307 82 
1840 449 270 282 290 
1841 449 270 290 243 
1842 241 273 276 292 
1843 268 455 284 258 
1844 272 242 296 263 
1845 431 242 55 54 
1846 457 460 238 458 
1847 7 457 238 458 
1848 62 440 63 292 
1849 438 457 299 271 
1850 270 282 290 294 
1851 54 431 448 237 
1852 287 432 1 89 
1853 304 443 88 434 
1854 444 56 64 55 
1855 266 252 270 294 
1856 60 437 293 299 
1857 440 451 292 62 
1858 441 265 243 290 
1859 238 460 8 458 
1860 235 432 1 67 
1861 270 259 282 248 
1862 251 91 248 447 
1863 94 456 436 301 
1864 86 78 439 77 
1865 252 266 268 294 
1866 290 243 270 265 
1867 293 268 284 294 
1868 268 455 258 247 
1869 461 90 438 93 
1870 449 81 80 307 
1871 8 60 460 238 
1872 10 456 94 301 
1873 59 437 239 60 
1874 93 94 91 447 
1875 435 282 82 83 
1876 251 247 293 268 
1877 81 435 456 82 
1878 84 85 79 450 
1879 273 258 268 284 
1880 456 435 81 269 
1881 437 251 293 299 
1882 269 9 456 92 
1883 460 60 437 238 
1884 440 444 63 285 
1885 79 85 78 450 
1886 432 11 303 459 
1887 271 90 251 438 
1888 437 59 239 58 
1889 437 251 299 271 
1890 269 92 436 248 
1891 235 433 67 236 
1892 10 280 94 456 
1893 80 84 79 441 
1894 461 93 8 279 
1895 251 293 299 288 
1896 238 60 437 59 
1897 85 78 439 86 
1898 239 60 437 61 
1899 456 435 301 82 
1900 304 443 434 75 
1901 57 440 63 62 
1902 63 56 440 57 
1903 58 451 57 62 
1904 248 301 282 288 
1905 77 261 445 76 
1906 53 237 54 448 
1907 248 435 282 301 
1908 248 435 301 269 
1909 442 88 304 89 
1910 299 437 457 460 
1911 240 431 55 54 
1912 303 11 73 459 
1913 459 235 11 51 
1914 52 51 235 446 
1915 452 73 303 74 
1916 11 3 73 459 
1917 11 3 459 51 
1918 301 435 456 269 
1919 443 87 88 289 
1920 92 94 456 436 
1921 461 90 93 279 
1922 66 431 65 237 
1923 456 269 92 436 
1924 299 437 271 457 
1925 246 443 76 75 
1926 443 246 274 75 
1927 52 433 236 53 
1928 274 74 250 434 
1929 299 60 437 460 
1930 235 433 236 52 
1931 452 73 74 278 
1932 432 11 459 235 
1933 283 87 86 454 
1934 456 9 10 280 
1935 8 7 238 458 
1936 434 274 74 75 
1937 264 300 286 263 
1938 264 300 263 267 
1939 448 286 431 262 
1940 245 286 262 264 
1941 289 443 302 88 
1942 430 87 283 454 
1943 76 430 261 445 
1944 283 430 445 261 
1945 443 264 274 246 
1946 448 286 262 245 
1947 263 431 242 296 
1948 66 286 65 431 
1949 442 432 452 250 
1950 250 452 249 432 
1951 432 11 235 1 
1952 432 303 1 89 
1953 432 11 1 303 
1954 8 60 299 460 
1955 296 65 453 64 
1956 461 458 8 460 
1957 66 245 287 302 
1958 443 264 246 289 
1959 448 236 237 66 
1960 433 448 53 245 
1961 433 245 275 287 
1962 52 245 433 53 
1963 52 245 275 433 
1964 250 434 442 287 
1965 287 434 88 302 
1966 440 56 241 57 
1967 304 443 75 305 
1968 304 443 305 88 
1969 434 74 250 442 
1970 304 434 74 75 
1971 435 81 269 259 
1972 449 81 307 435 
1973 307 449 435 83 
1974 307 435 82 83 
1975 248 436 301 288 
1976 461 458 460 457 
1977 436 248 91 447 
1978 92 436 248 91 
1979 432 459 446 235 
1980 437 251 271 247 
1981 437 455 293 247 
1982 437 60 293 61 
1983 299 438 251 288 
1984 459 3 249 51 
1985 91 251 438 447 
1986 91 251 90 438 
1987 77 439 261 244 
1988 439 255 261 244 
1989 439 255 244 295 
1990 440 451 62 57 
1991 439 450 78 85 
1992 439 78 244 77 
1993 439 450 85 295 
1994 440 276 241 260 
1995 440 276 260 285 
1996 260 440 56 241 
1997 440 451 57 241 
1998 303 442 74 304 
1999 442 89 304 303 
2000 442 89 303 432 
2001 442 88 89 287 
2002 434 74 442 304 
2003 443 87 289 430 
2004 76 430 305 443 
2005 443 434 75 274 
2006 443 305 76 75 
2007 302 443 434 88 
2008 55 242 444 260 
2009 444 272 260 242 
2010 444 272 242 296 
2011 440 444 260 56 
2012 260 56 444 55 
2013 439 308 77 445 
2014 439 454 445 283 
2015 77 445 308 76 
2016 76 430 445 308 
2017 283 430 454 445 
2018 446 433 52 275 
2019 446 250 275 249 
2020 446 433 275 287 
2021 52 51 446 275 
2022 51 249 446 275 
2023 459 3 73 249 
2024 269 436 301 248 
2025 92 456 94 280 
2026 456 269 436 301 
2027 446 235 459 51 
2028 459 452 249 73 
2029 437 251 247 293 
2030 460 437 457 238 
2031 238 437 457 59 
2032 459 452 432 249 
2033 94 436 447 288 
2034 447 438 93 288 
2035 251 447 248 288 
2036 93 94 447 288 
2037 436 248 447 288 
2038 447 251 438 288 
2039 448 286 245 66 
2040 450 244 78 253 
2041 448 286 66 431 
2042 79 450 78 253 
2043 448 53 245 262 
2044 53 448 54 262 
2045 449 270 243 259 
2046 80 449 441 243 
2047 449 80 259 243 
2048 290 441 449 243 
2049 306 9 10 456 
2050 456 10 82 301 
2051 8 7 458 279 
2052 247 59 437 58 
2053 450 281 253 441 
2054 461 458 457 279 
2055 253 79 450 441 
2056 7 457 458 279 
2057 451 273 284 258 
2058 451 273 258 241 
2059 284 451 455 61 
2060 58 455 451 61 
2061 258 241 57 451 
2062 58 258 57 451 
2063 260 444 440 285 
2064 303 452 74 442 
2065 452 73 278 249 
2066 459 452 73 303 
2067 442 432 303 452 
2068 459 452 303 432 
2069 65 240 431 453 
2070 55 242 453 444 
2071 55 453 431 240 
2072 453 242 296 444 
2073 306 456 82 81 
2074 66 287 433 67 
2075 461 458 279 8 
2076 248 435 269 259 
2077 431 262 242 54 
2078 295 450 281 253 
2079 271 438 251 299 
2080 301 435 282 82 
2081 461 90 279 457 
2082 457 271 7 59 
2083 439 308 454 86 
2084 454 87 86 308 
2085 430 87 454 308 
2086 439 308 445 454 
2087 454 430 308 445 
2088 437 455 58 61 
2089 449 270 259 282 
2090 435 259 282 449 
2091 67 432 1 287 
2092 449 81 435 259 
2093 449 81 259 80 
2094 268 455 247 293 
2095 258 58 247 455 
2096 284 451 258 455 
2097 58 258 451 455 
2098 58 455 437 247 
2099 67 433 446 287 
2100 456 9 280 92 
2101 431 262 54 448 
2102 446 250 249 432 
3 4 4 430
2103 23 462 102 474 
2104 15 462 364 14 
2105 102 462 105 14 
2106 474 14 354 462 
2107 332 367 335 354 
2108 23 462 314 329 
2109 15 462 14 105 
2110 88 313 370 357 
2111 463 330 76 479 
2112 479 357 463 330 
2113 468 485 369 99 
2114 479 88 305 463 
2115 353 365 366 322 
2116 469 316 337 369 
2117 485 2 369 99 
2118 87 308 305 463 
2119 323 353 366 322 
2120 476 100 475 464 
2121 21 475 467 101 
2122 477 351 463 87 
2123 322 365 366 324 
2124 463 351 477 310 
2125 465 479 313 88 
2126 87 308 463 477 
2127 462 335 364 354 
2128 323 366 367 340 
2129 486 98 368 10 
2130 366 323 322 324 
2131 333 322 365 360 
2132 474 335 462 354 
2133 482 336 350 315 
2134 467 345 355 318 
2135 367 335 364 323 
2136 364 354 335 367 
2137 363 344 365 349 
2138 463 77 310 477 
2139 23 462 24 105 
2140 472 344 363 349 
2141 476 100 464 12 
2142 360 365 333 359 
2143 368 486 470 98 
2144 333 365 322 325 
2145 463 351 357 87 
2146 333 365 325 359 
2147 87 86 308 477 
2148 349 344 365 325 
2149 327 469 481 361 
2150 365 324 344 363 
2151 312 353 364 323 
2152 472 344 349 309 
2153 88 355 313 465 
2154 340 366 351 363 
2155 484 482 326 358 
2156 332 367 354 357 
2157 474 332 354 370 
2158 356 369 99 468 
2159 473 333 352 360 
2160 353 366 364 323 
2161 467 345 318 342 
2162 354 370 332 357 
2163 483 322 360 353 
2164 11 464 303 487 
2165 351 367 366 340 
2166 478 318 355 343 
2167 329 24 471 312 
2168 477 340 351 363 
2169 23 462 105 102 
2170 364 329 312 323 
2171 473 333 360 321 
2172 331 323 367 340 
2173 481 28 104 469 
2174 323 367 335 331 
2175 303 465 74 478 
2176 467 475 21 318 
2177 88 89 465 304 
2178 345 474 467 370 
2179 467 13 355 370 
2180 77 86 477 308 
2181 324 366 340 363 
2182 76 305 308 463 
2183 345 474 370 332 
2184 20 475 487 317 
2185 479 304 88 465 
2186 366 367 364 323 
2187 483 322 353 312 
2188 318 343 345 355 
2189 334 341 358 359 
2190 351 357 367 331 
2191 477 472 328 363 
2192 322 353 365 360 
2193 356 470 98 368 
2194 473 360 17 483 
2195 324 365 366 363 
2196 323 312 353 322 
2197 467 476 13 101 
2198 478 303 464 487 
2199 352 360 333 359 
2200 370 345 313 355 
2201 345 474 332 342 
2202 325 365 349 359 
2203 483 312 353 471 
2204 15 462 105 24 
2205 463 331 357 351 
2206 20 487 3 317 
2207 73 3 487 317 
2208 362 334 358 359 
2209 477 340 363 328 
2210 81 466 339 315 
2211 484 341 349 358 
2212 463 331 351 310 
2213 344 349 341 325 
2214 484 341 358 326 
2215 487 475 20 100 
2216 482 350 358 83 
2217 325 349 341 359 
2218 344 324 365 325 
2219 26 27 473 311 
2220 364 471 462 15 
2221 305 76 479 463 
2222 472 484 309 349 
2223 96 480 99 468 
2224 338 362 316 361 
2225 85 363 349 472 
2226 349 358 341 359 
2227 311 473 26 321 
2228 352 17 18 473 
2229 367 351 331 340 
2230 332 345 313 370 
2231 487 475 464 317 
2232 28 469 19 104 
2233 481 18 352 361 
2234 27 18 473 481 
2235 473 333 321 311 
2236 343 313 345 355 
2237 477 351 86 363 
2238 353 364 15 471 
2239 462 471 364 329 
2240 353 16 360 483 
2241 466 482 307 83 
2242 352 360 17 473 
2243 352 333 338 359 
2244 364 335 329 323 
2245 83 358 484 84 
2246 356 320 350 362 
2247 481 104 18 469 
2248 328 344 324 363 
2249 479 304 465 75 
2250 470 96 480 98 
2251 338 316 362 320 
2252 19 2 369 485 
2253 340 328 324 363 
2254 334 338 333 359 
2255 349 484 358 84 
2256 324 322 365 325 
2257 474 335 354 332 
2258 338 334 362 359 
2259 303 465 478 89 
2260 356 350 320 319 
2261 360 333 322 321 
2262 362 336 320 350 
2263 362 352 338 359 
2264 334 358 336 362 
2265 320 362 356 316 
2266 96 99 97 468 
2267 485 369 19 469 
2268 341 358 336 334 
2269 18 27 104 481 
2270 319 320 336 350 
2271 484 482 358 83 
2272 80 307 482 83 
2273 463 331 310 330 
2274 357 330 332 331 
2275 474 14 462 102 
2276 96 470 95 98 
2277 325 334 333 359 
2278 479 304 75 305 
2279 341 334 325 359 
2280 472 86 363 477 
2281 475 21 100 101 
2282 360 16 17 483 
2283 472 86 477 78 
2284 27 18 17 473 
2285 473 17 26 483 
2286 316 356 320 319 
2287 366 323 324 340 
2288 483 25 26 321 
2289 483 312 471 25 
2290 103 28 4 485 
2291 81 466 482 307 
2292 361 356 362 316 
2293 368 350 466 82 
2294 306 486 9 81 
2295 482 336 326 358 
2296 15 16 353 471 
2297 484 80 83 84 
2298 481 338 361 352 
2299 481 338 352 311 
2300 481 28 469 327 
2301 341 349 344 309 
2302 486 368 466 82 
2303 482 336 358 350 
2304 481 28 27 104 
2305 486 10 368 82 
2306 463 330 310 76 
2307 12 1 100 464 
2308 349 85 472 84 
2309 467 13 102 101 
2310 77 86 78 477 
2311 362 338 352 361 
2312 351 331 340 310 
2313 472 484 349 84 
2314 362 358 336 350 
2315 352 473 18 481 
2316 11 464 487 100 
2317 338 327 361 316 
2318 469 369 19 361 
2319 316 96 480 319 
2320 82 466 307 83 
2321 486 347 98 10 
2322 15 24 25 471 
2323 338 334 320 362 
2324 352 338 333 311 
2325 28 469 327 337 
2326 481 28 327 27 
2327 350 336 319 315 
2328 306 10 486 82 
2329 81 466 307 82 
2330 320 334 336 362 
2331 336 326 358 341 
2332 96 99 480 98 
2333 9 486 95 339 
2334 466 319 350 368 
2335 16 26 17 483 
2336 339 95 319 470 
2337 485 19 28 469 
2338 82 486 81 466 
2339 4 485 337 97 
2340 472 86 78 85 
2341 16 25 26 483 
2342 466 319 368 339 
2343 11 464 100 1 
2344 81 307 482 80 
2345 97 468 337 316 
2346 104 19 18 469 
2347 303 465 89 304 
2348 481 338 327 361 
2349 26 27 17 473 
2350 82 81 486 306 
2351 16 15 25 471 
2352 485 28 19 103 
2353 319 356 350 368 
2354 467 102 22 101 
2355 85 472 84 79 
2356 472 85 78 79 
2357 84 484 80 79 
2358 369 356 361 316 
2359 478 464 303 89 
2360 305 76 75 479 
2361 469 316 369 361 
2362 12 13 476 101 
2363 487 73 317 478 
2364 463 77 477 308 
2365 469 316 361 327 
2366 303 73 11 487 
2367 20 11 487 100 
2368 73 303 74 478 
2369 4 485 348 2 
2370 475 21 20 100 
2371 73 3 11 487 
2372 20 11 3 487 
2373 95 486 9 347 
2374 483 322 312 321 
2375 19 2 485 103 
2376 88 87 305 463 
2377 97 99 485 468 
2378 474 14 102 13 
2379 337 485 468 97 
2380 303 73 487 478 
2381 348 2 485 99 
2382 474 23 22 102 
2383 467 474 342 22 
2384 74 304 75 465 
2385 467 475 476 101 
2386 462 471 24 15 
2387 303 465 304 74 
2388 464 475 487 100 
2389 11 464 1 303 
2390 478 464 89 355 
2391 9 10 486 306 
2392 467 22 21 101 
2393 4 485 2 103 
2394 332 367 357 331 
2395 332 367 331 335 
2396 313 357 332 370 
2397 332 357 313 330 
2398 474 14 13 354 
2399 364 354 14 462 
2400 462 335 314 329 
2401 462 335 329 364 
2402 474 335 332 314 
2403 479 357 330 313 
2404 463 331 330 357 
2405 88 87 463 357 
2406 476 100 12 101 
2407 478 318 343 317 
2408 464 475 476 318 
2409 12 1 464 355 
2410 464 1 303 89 
2411 463 77 308 76 
2412 351 86 87 477 
2413 354 474 370 13 
2414 88 313 355 370 
2415 474 332 342 314 
2416 479 304 305 88 
2417 465 479 75 313 
2418 313 343 465 355 
2419 74 465 75 313 
2420 465 74 343 313 
2421 463 77 76 310 
2422 466 319 339 315 
2423 350 482 466 83 
2424 82 350 466 83 
2425 345 474 342 467 
2426 467 370 474 13 
2427 467 345 370 355 
2428 467 474 22 102 
2429 467 474 102 13 
2430 318 342 21 467 
2431 342 22 21 467 
2432 356 369 468 316 
2433 9 10 347 486 
2434 96 480 468 316 
2435 96 468 97 316 
2436 483 312 25 321 
2437 469 316 327 337 
2438 481 469 18 361 
2439 469 19 18 361 
2440 356 319 470 368 
2441 98 95 486 470 
2442 319 96 480 470 
2443 96 319 95 470 
2444 329 471 364 312 
2445 353 364 471 312 
2446 473 333 311 352 
2447 309 472 78 79 
2448 471 483 25 16 
2449 471 24 25 312 
2450 471 483 16 353 
2451 472 344 309 328 
2452 472 344 328 363 
2453 328 472 78 309 
2454 472 484 84 79 
2455 472 484 79 309 
2456 23 462 474 314 
2457 482 336 315 326 
2458 474 335 314 462 
2459 314 23 22 474 
2460 474 22 314 342 
2461 318 475 21 346 
2462 318 346 317 475 
2463 346 21 20 475 
2464 317 346 20 475 
2465 23 462 329 24 
2466 24 471 462 329 
2467 469 28 485 337 
2468 485 369 469 337 
2469 476 464 318 355 
2470 476 464 355 12 
2471 467 318 355 476 
2472 467 355 13 476 
2473 12 13 355 476 
2474 77 310 477 328 
2475 477 340 328 310 
2476 477 340 310 351 
2477 472 86 85 363 
2478 77 477 78 328 
2479 477 472 78 328 
2480 485 28 4 337 
2481 466 319 315 350 
2482 95 486 470 339 
2483 80 315 326 482 
2484 339 470 319 368 
2485 478 465 74 343 
2486 478 318 317 464 
2487 478 465 343 355 
2488 73 478 74 343 
2489 478 73 317 343 
2490 88 355 465 89 
2491 468 369 337 316 
2492 97 485 99 348 
2493 337 485 369 468 
2494 464 1 89 355 
2495 479 357 313 88 
2496 350 315 466 482 
2497 479 357 88 463 
2498 4 348 485 97 
2499 330 75 479 313 
2500 479 76 75 330 
2501 480 356 99 468 
2502 470 480 356 98 
2503 316 480 356 319 
2504 480 99 356 98 
2505 480 356 468 316 
2506 319 480 356 470 
2507 481 338 311 327 
2508 27 481 473 311 
2509 27 481 311 327 
2510 352 473 481 311 
2511 478 318 464 355 
2512 483 322 321 360 
2513 81 466 315 482 
2514 81 482 315 80 
2515 473 360 483 321 
2516 89 465 478 355 
2517 473 483 26 321 
2518 478 464 317 487 
2519 484 341 326 309 
2520 484 482 83 80 
2521 484 341 309 349 
2522 484 482 80 326 
2523 309 326 484 79 
2524 484 326 80 79 
2525 339 486 466 81 
2526 486 368 339 466 
2527 470 486 368 339 
2528 476 475 467 318 
2529 475 317 318 464 
2530 476 100 101 475 
2531 98 95 347 486 
2532 486 339 9 81 
$EndElements
